<mxfile host="app.diagrams.net" agent="Mozilla/5.0 (X11; Linux x86_64) AppleWebKit/537.36 (KHTML, like Gecko) Chrome/131.0.0.0 Safari/537.36" version="25.0.3">
  <diagram name="PÃ¡gina-1" id="GCsUKfHuZHVzMP3tB_GY">
    <mxGraphModel dx="954" dy="580" grid="1" gridSize="10" guides="1" tooltips="1" connect="1" arrows="1" fold="1" page="1" pageScale="1" pageWidth="827" pageHeight="1169" math="0" shadow="0">
      <root>
        <mxCell id="0" />
        <mxCell id="1" parent="0" />
        <mxCell id="zuihI0vclrm4cLOv70S8-49" value="" style="group" vertex="1" connectable="0" parent="1">
          <mxGeometry x="79" y="20" width="680" height="530" as="geometry" />
        </mxCell>
        <mxCell id="zuihI0vclrm4cLOv70S8-48" value="&lt;b&gt;LOG COLLECTION ARCHITECTURE&lt;/b&gt;" style="sketch=0;points=[[0,0,0],[0.25,0,0],[0.5,0,0],[0.75,0,0],[1,0,0],[1,0.25,0],[1,0.5,0],[1,0.75,0],[1,1,0],[0.75,1,0],[0.5,1,0],[0.25,1,0],[0,1,0],[0,0.75,0],[0,0.5,0],[0,0.25,0]];rounded=1;absoluteArcSize=1;arcSize=2;html=1;strokeColor=none;gradientColor=none;shadow=0;dashed=0;fontSize=12;fontColor=#9E9E9E;align=left;verticalAlign=top;spacing=10;spacingTop=-4;whiteSpace=wrap;fillColor=#FFF8E1;" vertex="1" parent="zuihI0vclrm4cLOv70S8-49">
          <mxGeometry width="680" height="530" as="geometry" />
        </mxCell>
        <mxCell id="zuihI0vclrm4cLOv70S8-47" value="" style="group" vertex="1" connectable="0" parent="zuihI0vclrm4cLOv70S8-49">
          <mxGeometry x="51" y="14" width="606" height="493.28" as="geometry" />
        </mxCell>
        <mxCell id="zuihI0vclrm4cLOv70S8-19" value="&lt;b&gt;DD-GCP-INTEGRATION&lt;/b&gt;" style="sketch=0;points=[[0,0,0],[0.25,0,0],[0.5,0,0],[0.75,0,0],[1,0,0],[1,0.25,0],[1,0.5,0],[1,0.75,0],[1,1,0],[0.75,1,0],[0.5,1,0],[0.25,1,0],[0,1,0],[0,0.75,0],[0,0.5,0],[0,0.25,0]];rounded=1;absoluteArcSize=1;arcSize=2;html=1;strokeColor=none;gradientColor=none;shadow=0;dashed=0;fontSize=12;fontColor=#9E9E9E;align=left;verticalAlign=top;spacing=10;spacingTop=-4;whiteSpace=wrap;fillColor=#E1F5FE;" vertex="1" parent="zuihI0vclrm4cLOv70S8-47">
          <mxGeometry y="86" width="330" height="400" as="geometry" />
        </mxCell>
        <mxCell id="zuihI0vclrm4cLOv70S8-21" style="edgeStyle=orthogonalEdgeStyle;rounded=0;orthogonalLoop=1;jettySize=auto;html=1;exitX=0.5;exitY=1;exitDx=0;exitDy=0;" edge="1" parent="zuihI0vclrm4cLOv70S8-47" source="zuihI0vclrm4cLOv70S8-2" target="zuihI0vclrm4cLOv70S8-4">
          <mxGeometry relative="1" as="geometry" />
        </mxCell>
        <mxCell id="zuihI0vclrm4cLOv70S8-2" value="" style="strokeColor=#dddddd;shadow=1;strokeWidth=1;rounded=1;absoluteArcSize=1;arcSize=2;" vertex="1" parent="zuihI0vclrm4cLOv70S8-47">
          <mxGeometry x="190" y="216" width="120" height="60" as="geometry" />
        </mxCell>
        <mxCell id="zuihI0vclrm4cLOv70S8-3" value="Pub/Sub" style="editableCssRules=.*;html=1;fontColor=#999999;shape=image;verticalLabelPosition=middle;verticalAlign=middle;labelPosition=right;align=left;spacingLeft=20;part=1;points=[];imageAspect=0;image=data:image/svg+xml,PHN2ZyB4bWxucz0iaHR0cDovL3d3dy53My5vcmcvMjAwMC9zdmciIHhtbG5zOnY9Imh0dHBzOi8vdmVjdGEuaW8vbmFubyIgd2lkdGg9IjE4LjMxOTk5OTY5NDgyNDIyIiBoZWlnaHQ9IjIwLjAwMDAwMTkwNzM0ODYzMyIgdmlld0JveD0iMCAwIDE4LjMxOTk5OTY5NDgyNDIyIDIwLjAwMDAwMTkwNzM0ODYzMyI+JiN4YTsJPHN0eWxlIHR5cGU9InRleHQvY3NzIj4mI3hhOwkuc3Qwe2ZpbGw6IzY2OWRmNjt9JiN4YTsJLnN0MXtmaWxsOiM0Mjg1ZjQ7fSYjeGE7CS5zdDJ7ZmlsbDojYWVjYmZhO30mI3hhOwk8L3N0eWxlPiYjeGE7CTxkZWZzPiYjeGE7CQk8ZmlsdGVyIGlkPSJBIiB4PSI0LjY0IiB5PSI0LjE5IiB3aWR0aD0iMTQuNzMiIGhlaWdodD0iMTIuNzYiIGZpbHRlclVuaXRzPSJ1c2VyU3BhY2VPblVzZSIgY29sb3ItaW50ZXJwb2xhdGlvbi1maWx0ZXJzPSJzUkdCIj4mI3hhOwkJCTxmZUZsb29kIGZsb29kLWNvbG9yPSIjZmZmIi8+JiN4YTsJCQk8ZmVCbGVuZCBpbj0iU291cmNlR3JhcGhpYyIvPiYjeGE7CQk8L2ZpbHRlcj4mI3hhOwkJPG1hc2sgaWQ9IkIiIHg9IjQuNjQiIHk9IjQuMTkiIHdpZHRoPSIxNC43MyIgaGVpZ2h0PSIxMi43NiIgbWFza1VuaXRzPSJ1c2VyU3BhY2VPblVzZSI+JiN4YTsJCQk8Y2lyY2xlIGN4PSIxMiIgY3k9IjEyLjIzIiByPSIzLjU4IiBmaWx0ZXI9InVybCgjQSkiLz4mI3hhOwkJPC9tYXNrPiYjeGE7CTwvZGVmcz4mI3hhOwk8ZyBjbGFzcz0ic3QwIj4mI3hhOwkJPGNpcmNsZSBjeD0iMTYuMTMiIGN5PSI2LjIxIiByPSIxLjcyIi8+JiN4YTsJCTxjaXJjbGUgY3g9IjIuMTkiIGN5PSI2LjIxIiByPSIxLjcyIi8+JiN4YTsJCTxjaXJjbGUgY3g9IjkuMTYiIGN5PSIxOC4yOCIgcj0iMS43MiIvPiYjeGE7CTwvZz4mI3hhOwk8ZyBtYXNrPSJ1cmwoI0IpIiB0cmFuc2Zvcm09InRyYW5zbGF0ZSgtMi44NCAtMikiPiYjeGE7CQk8cGF0aCB0cmFuc2Zvcm09Im1hdHJpeCguNSAtLjg3IC44NyAuNSAtNC41OSAyMC41MykiIGQ9Ik0xNC42OSAxMC4yMmgxLjU5djguMDRoLTEuNTl6IiBjbGFzcz0ic3QxIi8+JiN4YTsJCTxwYXRoIHRyYW5zZm9ybT0icm90YXRlKDMzMCA4LjUyMyAxNC4yNDQpIiBkPSJNNC40OSAxMy40NWg4LjA0djEuNTlINC40OXoiIGNsYXNzPSJzdDEiLz4mI3hhOwkJPHBhdGggZD0iTTExLjIgNC4xOWgxLjU5djguMDRIMTEuMnoiIGNsYXNzPSJzdDEiLz4mI3hhOwk8L2c+JiN4YTsJPGcgY2xhc3M9InN0MiI+JiN4YTsJCTxjaXJjbGUgY3g9IjkuMTYiIGN5PSIxMC4yMyIgcj0iMi43OCIvPiYjeGE7CQk8Y2lyY2xlIGN4PSIyLjE5IiBjeT0iMTQuMjUiIHI9IjIuMTkiLz4mI3hhOwkJPGNpcmNsZSBjeD0iMTYuMTMiIGN5PSIxNC4yNSIgcj0iMi4xOSIvPiYjeGE7CQk8Y2lyY2xlIGN4PSI5LjE2IiBjeT0iMi4xOSIgcj0iMi4xOSIvPiYjeGE7CTwvZz4mI3hhOzwvc3ZnPg==;" vertex="1" parent="zuihI0vclrm4cLOv70S8-2">
          <mxGeometry width="27" height="30" relative="1" as="geometry">
            <mxPoint x="16" y="15" as="offset" />
          </mxGeometry>
        </mxCell>
        <mxCell id="zuihI0vclrm4cLOv70S8-4" value="" style="strokeColor=#dddddd;shadow=1;strokeWidth=1;rounded=1;absoluteArcSize=1;arcSize=2;" vertex="1" parent="zuihI0vclrm4cLOv70S8-47">
          <mxGeometry x="190" y="326" width="120" height="60" as="geometry" />
        </mxCell>
        <mxCell id="zuihI0vclrm4cLOv70S8-5" value="Dataflow" style="editableCssRules=.*;html=1;fontColor=#999999;shape=image;verticalLabelPosition=middle;verticalAlign=middle;labelPosition=right;align=left;spacingLeft=20;part=1;points=[];imageAspect=0;image=data:image/svg+xml,PHN2ZyB4bWxucz0iaHR0cDovL3d3dy53My5vcmcvMjAwMC9zdmciIHhtbG5zOnY9Imh0dHBzOi8vdmVjdGEuaW8vbmFubyIgd2lkdGg9IjE0LjUxOTk5OTUwNDA4OTM1NSIgaGVpZ2h0PSIyMCIgdmlld0JveD0iMCAwIDE0LjUxOTk5OTUwNDA4OTM1NSAyMCI+JiN4YTsJPHN0eWxlIHR5cGU9InRleHQvY3NzIj4mI3hhOwkuc3Qwe2ZpbGwtcnVsZTpldmVub2RkfSYjeGE7CS5zdDF7ZmlsbDojNjY5ZGY2O30mI3hhOwkuc3Qye2ZpbGw6I2FlY2JmYTt9JiN4YTsJLnN0M3tmaWxsOiM0Mjg1ZjQ7fSYjeGE7CTwvc3R5bGU+JiN4YTsJPGcgY2xhc3M9InN0MCI+JiN4YTsJCTxwYXRoIGNsYXNzPSJzdDEiIGQ9Ik03LjM3IDIuMDNsLTEuNzIuOTYgMS41MiAxLjUtLjAyIDEuNzMgMS4wMi4wMS4wMi0xLjczIDQuMjQgMi41Ni0uMDEgMS4wNyAxLjc3LjAzVjYuMTFMOS4wNSAzLjA0bC0uMjctLjk0eiIvPiYjeGE7CQk8cGF0aCBjbGFzcz0ic3QyIiBkPSJNNy4zNiAyLjAzbC0xLjQyLjM1LS4yOS42MUwuMzkgNS45Mi4zNiA3Ljk3IDIuMTQgOGwuMDItMS4wNyA0LjMxLTIuNDUtLjAyIDEuNzMuODYuMDEuMDYtNC4xOXoiLz4mI3hhOwkJPGcgY2xhc3M9InN0MSI+JiN4YTsJCQk8cGF0aCBkPSJNNy4zNiAyLjAzTDMuOTUgMCAyLjIxLjk1bDMuNDQgMi4wNCAxLjcyLS45NnptLjcxIDExLjc2bC0xLjcyLS4wMi0uMDIgMS43Mi44MiAyLjQ4IDEuNDItLjEyLjI5LS44NSA1LjI3LTIuOTMuMDMtMi4wOS0xLjc5LS4wMi0uMDIgMS4xLTQuMyAyLjQ1eiIvPiYjeGE7CQkJPHBhdGggZD0iTTcuMTUgMTcuOTdsLTMuNDYgMS45NGgtLjA1bC0xLjY2LS45OSAzLjQ5LTEuOTYgMS42OCAxLjAxeiIvPiYjeGE7CQk8L2c+JiN4YTsJCTxwYXRoIGNsYXNzPSJzdDMiIGQ9Ik0xMC44OC4wOWgtLjA1TDcuMzcgMi4wM2wxLjY4IDEuMDEgMy40OS0xLjk2ek0xMC42MiAyMGgtLjA1bC0zLjQyLTIuMDNoMCAwIDBsMS43Mi0uOTYgMy40NCAyLjA0eiIvPiYjeGE7CQk8cGF0aCBjbGFzcz0ic3QyIiBkPSJNLjMzIDEzLjg5di0yaDEuNzZsLS4wMSAxLjA0IDQuMjUgMi41Ni4wMi0xLjcyLjg2LjAxLS4wNiA0LjE4LTEuNjgtMXoiLz4mI3hhOwk8L2c+JiN4YTsJPGNpcmNsZSBjbGFzcz0ic3QyIiBjeD0iMTMuMzgiIGN5PSIxMC4wNCIgcj0iMS4xNCIvPiYjeGE7CTxjaXJjbGUgY2xhc3M9InN0MiIgY3g9IjEuMTQiIGN5PSI5Ljg4IiByPSIxLjE0Ii8+JiN4YTsJPGNpcmNsZSBjbGFzcz0ic3QyIiBjeD0iNy4zMiIgY3k9IjcuOTkiIHI9IjEuMTQiLz4mI3hhOwk8Y2lyY2xlIGNsYXNzPSJzdDIiIGN4PSI3LjIzIiBjeT0iMTIiIHI9IjEuMTQiLz4mI3hhOzwvc3ZnPg==;" vertex="1" parent="zuihI0vclrm4cLOv70S8-4">
          <mxGeometry width="22" height="30" relative="1" as="geometry">
            <mxPoint x="19" y="15" as="offset" />
          </mxGeometry>
        </mxCell>
        <mxCell id="zuihI0vclrm4cLOv70S8-22" style="edgeStyle=orthogonalEdgeStyle;rounded=0;orthogonalLoop=1;jettySize=auto;html=1;exitX=1;exitY=0.5;exitDx=0;exitDy=0;entryX=0;entryY=0.5;entryDx=0;entryDy=0;" edge="1" parent="zuihI0vclrm4cLOv70S8-47" source="zuihI0vclrm4cLOv70S8-6" target="zuihI0vclrm4cLOv70S8-4">
          <mxGeometry relative="1" as="geometry" />
        </mxCell>
        <mxCell id="zuihI0vclrm4cLOv70S8-6" value="" style="strokeColor=#dddddd;shadow=1;strokeWidth=1;rounded=1;absoluteArcSize=1;arcSize=2;" vertex="1" parent="zuihI0vclrm4cLOv70S8-47">
          <mxGeometry x="20" y="326" width="130" height="60" as="geometry" />
        </mxCell>
        <mxCell id="zuihI0vclrm4cLOv70S8-7" value="Compute&#xa;Engine" style="editableCssRules=.*;html=1;fontColor=#999999;shape=image;verticalLabelPosition=middle;verticalAlign=middle;labelPosition=right;align=left;spacingLeft=20;part=1;points=[];imageAspect=0;image=data:image/svg+xml,PHN2ZyB4bWxucz0iaHR0cDovL3d3dy53My5vcmcvMjAwMC9zdmciIHhtbG5zOnY9Imh0dHBzOi8vdmVjdGEuaW8vbmFubyIgd2lkdGg9IjIwIiBoZWlnaHQ9IjIwIiB2aWV3Qm94PSIwIDAgMjAgMjAiPiYjeGE7CTxzdHlsZSB0eXBlPSJ0ZXh0L2NzcyI+JiN4YTsJLnN0MHtmaWxsOiM0Mjg1ZjQ7fSYjeGE7CS5zdDF7ZmlsbDojNjY5ZGY2O30mI3hhOwkuc3Qye2ZpbGw6I2FlY2JmYTt9JiN4YTsJPC9zdHlsZT4mI3hhOwk8cGF0aCBjbGFzcz0ic3QyIiBkPSJNNyA3aDZ2Nkg3eiIvPiYjeGE7CTxwYXRoIGNsYXNzPSJzdDEiIGQ9Ik05IDBoMnY0SDl6TTUgMGgydjRINXptOCAwaDJ2NGgtMnoiLz4mI3hhOwk8cGF0aCBjbGFzcz0ic3QwIiBkPSJNOSAxNmgydjRIOXptLTQgMGgydjRINXptOCAwaDJ2NGgtMnptMy01VjloNHYyem0wIDR2LTJoNHYyem0wLThWNWg0djJ6Ii8+JiN4YTsJPHBhdGggY2xhc3M9InN0MSIgZD0iTTAgMTFWOWg0djJ6bTAgNHYtMmg0djJ6bTAtOFY1aDR2MnoiLz4mI3hhOwk8cGF0aCBjbGFzcz0ic3QyIiBkPSJNMyAzdjE0aDE0VjN6bTEyIDEySDVWNWgxMHoiLz4mI3hhOwk8cGF0aCBjbGFzcz0ic3QxIiBkPSJNMTAgMTBsLTMgM2g2eiIvPiYjeGE7CTxwYXRoIGNsYXNzPSJzdDAiIGQ9Ik0xMyA3bC0zIDMgMyAzeiIvPiYjeGE7PC9zdmc+;" vertex="1" parent="zuihI0vclrm4cLOv70S8-6">
          <mxGeometry width="30" height="30" relative="1" as="geometry">
            <mxPoint x="15" y="15" as="offset" />
          </mxGeometry>
        </mxCell>
        <mxCell id="zuihI0vclrm4cLOv70S8-23" style="edgeStyle=orthogonalEdgeStyle;rounded=0;orthogonalLoop=1;jettySize=auto;html=1;exitX=1;exitY=0.5;exitDx=0;exitDy=0;entryX=0.5;entryY=1;entryDx=0;entryDy=0;" edge="1" parent="zuihI0vclrm4cLOv70S8-47" source="zuihI0vclrm4cLOv70S8-8" target="zuihI0vclrm4cLOv70S8-4">
          <mxGeometry relative="1" as="geometry" />
        </mxCell>
        <mxCell id="zuihI0vclrm4cLOv70S8-8" value="" style="strokeColor=#dddddd;shadow=1;strokeWidth=1;rounded=1;absoluteArcSize=1;arcSize=2;" vertex="1" parent="zuihI0vclrm4cLOv70S8-47">
          <mxGeometry x="20" y="406" width="130" height="60" as="geometry" />
        </mxCell>
        <mxCell id="zuihI0vclrm4cLOv70S8-9" value="Cloud&#xa;Storage" style="editableCssRules=.*;html=1;fontColor=#999999;shape=image;verticalLabelPosition=middle;verticalAlign=middle;labelPosition=right;align=left;spacingLeft=20;part=1;points=[];imageAspect=0;image=data:image/svg+xml,PHN2ZyB4bWxucz0iaHR0cDovL3d3dy53My5vcmcvMjAwMC9zdmciIHhtbG5zOnY9Imh0dHBzOi8vdmVjdGEuaW8vbmFubyIgd2lkdGg9IjIwIiBoZWlnaHQ9IjE2IiB2aWV3Qm94PSIwIDAgMjAgMTYiPiYjeGE7CTxzdHlsZSB0eXBlPSJ0ZXh0L2NzcyI+JiN4YTsJLnN0MHtmaWxsOiM0Mjg1ZjQ7fSYjeGE7CS5zdDF7ZmlsbDojNjY5ZGY2O30mI3hhOwkuc3Qye2ZpbGw6I2FlY2JmYTt9JiN4YTsJLnN0M3tmaWxsOiNmZmY7fSYjeGE7CTwvc3R5bGU+JiN4YTsJPHBhdGggY2xhc3M9InN0MiIgZD0iTTAgMGgyMHY3SDB6Ii8+JiN4YTsJPHBhdGggY2xhc3M9InN0MSIgZD0iTTE4IDBoMnY3aC0yeiIvPiYjeGE7CTxwYXRoIGNsYXNzPSJzdDAiIGQ9Ik0xOCA3bDItN2gtMnoiLz4mI3hhOwk8cGF0aCBjbGFzcz0ic3QxIiBkPSJNMCAwaDJ2N0gweiIvPiYjeGE7CTxnIGNsYXNzPSJzdDMiPiYjeGE7CQk8cGF0aCBkPSJNNCAzaDZ2MUg0eiIvPiYjeGE7CQk8cmVjdCB4PSIxMyIgeT0iMiIgd2lkdGg9IjMiIGhlaWdodD0iMyIgcng9IjEuNSIvPiYjeGE7CTwvZz4mI3hhOwk8cGF0aCBjbGFzcz0ic3QyIiBkPSJNMCA5aDIwdjdIMHoiLz4mI3hhOwk8cGF0aCBjbGFzcz0ic3QxIiBkPSJNMTggOWgydjdoLTJ6Ii8+JiN4YTsJPHBhdGggY2xhc3M9InN0MCIgZD0iTTE4IDE2bDItN2gtMnoiLz4mI3hhOwk8cGF0aCBjbGFzcz0ic3QxIiBkPSJNMCA5aDJ2N0gweiIvPiYjeGE7CTxnIGNsYXNzPSJzdDMiPiYjeGE7CQk8cGF0aCBkPSJNNCAxMmg2djFINHoiLz4mI3hhOwkJPHJlY3QgeD0iMTMiIHk9IjExIiB3aWR0aD0iMyIgaGVpZ2h0PSIzIiByeD0iMS41Ii8+JiN4YTsJPC9nPiYjeGE7PC9zdmc+;" vertex="1" parent="zuihI0vclrm4cLOv70S8-8">
          <mxGeometry width="30" height="24" relative="1" as="geometry">
            <mxPoint x="15" y="18" as="offset" />
          </mxGeometry>
        </mxCell>
        <mxCell id="zuihI0vclrm4cLOv70S8-20" style="edgeStyle=orthogonalEdgeStyle;rounded=0;orthogonalLoop=1;jettySize=auto;html=1;exitX=0.5;exitY=1;exitDx=0;exitDy=0;entryX=0.5;entryY=0;entryDx=0;entryDy=0;" edge="1" parent="zuihI0vclrm4cLOv70S8-47" source="zuihI0vclrm4cLOv70S8-10" target="zuihI0vclrm4cLOv70S8-2">
          <mxGeometry relative="1" as="geometry" />
        </mxCell>
        <mxCell id="zuihI0vclrm4cLOv70S8-10" value="" style="strokeColor=#dddddd;shadow=1;strokeWidth=1;rounded=1;absoluteArcSize=1;arcSize=2;" vertex="1" parent="zuihI0vclrm4cLOv70S8-47">
          <mxGeometry x="190" y="106" width="120" height="60" as="geometry" />
        </mxCell>
        <mxCell id="zuihI0vclrm4cLOv70S8-11" value="Logging" style="editableCssRules=.*;html=1;fontColor=#999999;shape=image;verticalLabelPosition=middle;verticalAlign=middle;labelPosition=right;align=left;spacingLeft=20;part=1;points=[];imageAspect=0;image=data:image/svg+xml,PHN2ZyB4bWxucz0iaHR0cDovL3d3dy53My5vcmcvMjAwMC9zdmciIHhtbG5zOnY9Imh0dHBzOi8vdmVjdGEuaW8vbmFubyIgd2lkdGg9IjIwIiBoZWlnaHQ9IjE5IiB2aWV3Qm94PSIwIDAgMjAgMTkiPiYjeGE7CTxzdHlsZSB0eXBlPSJ0ZXh0L2NzcyI+JiN4YTsJLnN0MHtmaWxsOiM0Mjg1ZjQ7fSYjeGE7CS5zdDF7ZmlsbDojNjY5ZGY2O30mI3hhOwkuc3Qye2ZpbGw6I2FlY2JmYTt9JiN4YTsJPC9zdHlsZT4mI3hhOwk8ZyBjbGFzcz0ic3QwIj4mI3hhOwkJPHBhdGggZD0iTTQgOWg0djJINHptLTIgN2g2djJIMnoiLz4mI3hhOwkJPHBhdGggZD0iTTQgNEgydjEyaDJ6Ii8+JiN4YTsJPC9nPiYjeGE7CTxwYXRoIGNsYXNzPSJzdDEiIGQ9Ik0yMCAxSDd2NGgxM3ptMCA3SDd2NGgxM3ptMCA3SDd2NGgxM3oiLz4mI3hhOwk8cGF0aCBjbGFzcz0ic3QyIiBkPSJNNiAwSDB2Nmg2eiIvPiYjeGE7PC9zdmc+;" vertex="1" parent="zuihI0vclrm4cLOv70S8-10">
          <mxGeometry width="30" height="28" relative="1" as="geometry">
            <mxPoint x="15" y="16" as="offset" />
          </mxGeometry>
        </mxCell>
        <mxCell id="zuihI0vclrm4cLOv70S8-27" value="NAT" style="editableCssRules=.*;html=1;shape=image;verticalLabelPosition=bottom;labelBackgroundColor=#ffffff;verticalAlign=top;aspect=fixed;imageAspect=0;image=data:image/svg+xml,PHN2ZyB4bWxuczppbmtzY2FwZT0iaHR0cDovL3d3dy5pbmtzY2FwZS5vcmcvbmFtZXNwYWNlcy9pbmtzY2FwZSIgeG1sbnM6c29kaXBvZGk9Imh0dHA6Ly9zb2RpcG9kaS5zb3VyY2Vmb3JnZS5uZXQvRFREL3NvZGlwb2RpLTAuZHRkIiB4bWxucz0iaHR0cDovL3d3dy53My5vcmcvMjAwMC9zdmciIHhtbG5zOnN2Zz0iaHR0cDovL3d3dy53My5vcmcvMjAwMC9zdmciIHdpZHRoPSI5OS45OTczMDIyMDQ4OTI5NiIgaGVpZ2h0PSI5Ny44ODA4NTM5MDQyOTYzMyIgdmlld0JveD0iLTAuMDQ1Nzc2MzY3MTg3NSAxLjA4Nzc4ODU4MTg0ODE0NDUgOTkuOTk3Mjk5MTk0MzM1OTQgOTcuODgwODQ0MTE2MjEwOTQiIHZlcnNpb249IjEuMSIgaWQ9InN2ZzUiIGlua3NjYXBlOnZlcnNpb249IjEuMSAoYzY4ZTIyYzM4NywgMjAyMS0wNS0yMykiIHNvZGlwb2RpOmRvY25hbWU9ImNsb3VkX25hdC5zdmciPiYjeGE7ICA8c29kaXBvZGk6bmFtZWR2aWV3IGlkPSJuYW1lZHZpZXc3IiBwYWdlY29sb3I9IiNmZmZmZmYiIGJvcmRlcmNvbG9yPSIjNjY2NjY2IiBib3JkZXJvcGFjaXR5PSIxLjAiIGlua3NjYXBlOnBhZ2VzaGFkb3c9IjIiIGlua3NjYXBlOnBhZ2VvcGFjaXR5PSIwLjAiIGlua3NjYXBlOnBhZ2VjaGVja2VyYm9hcmQ9IjAiIGlua3NjYXBlOmRvY3VtZW50LXVuaXRzPSJtbSIgc2hvd2dyaWQ9ImZhbHNlIiBpbmtzY2FwZTp6b29tPSIwLjU3OTMzNzQ0IiBpbmtzY2FwZTpjeD0iLTQyLjI4OTY4OSIgaW5rc2NhcGU6Y3k9IjI1NC42MDExOSIgaW5rc2NhcGU6d2luZG93LXdpZHRoPSIxOTIwIiBpbmtzY2FwZTp3aW5kb3ctaGVpZ2h0PSIxMDE3IiBpbmtzY2FwZTp3aW5kb3cteD0iLTgiIGlua3NjYXBlOndpbmRvdy15PSItOCIgaW5rc2NhcGU6d2luZG93LW1heGltaXplZD0iMSIgaW5rc2NhcGU6Y3VycmVudC1sYXllcj0ibGF5ZXIxIiBmaXQtbWFyZ2luLXRvcD0iMCIgZml0LW1hcmdpbi1sZWZ0PSIwIiBmaXQtbWFyZ2luLXJpZ2h0PSIwIiBmaXQtbWFyZ2luLWJvdHRvbT0iMCIvPiYjeGE7ICA8ZGVmcyBpZD0iZGVmczIiLz4mI3hhOyAgPGcgaW5rc2NhcGU6bGFiZWw9IkxheWVyIDEiIGlua3NjYXBlOmdyb3VwbW9kZT0ibGF5ZXIiIGlkPSJsYXllcjEiIHRyYW5zZm9ybT0idHJhbnNsYXRlKDI1OC42MTk3NSwxNi42Njc3MTUpIj4mI3hhOyAgICA8cGF0aCBpZD0icGF0aDE3MzYyIiBzdHlsZT0ib3BhY2l0eToxO2ZpbGw6IzQyODVmNDtmaWxsLW9wYWNpdHk6MTtzdHJva2U6bm9uZTtzdHJva2Utd2lkdGg6MC45OTk5OTlweDtzdHJva2UtbGluZWNhcDpidXR0O3N0cm9rZS1saW5lam9pbjptaXRlcjtzdHJva2Utb3BhY2l0eToxIiBkPSJNIDE0MS40MTc5Nyw0LjExMTMyODEgMTI0LjQwMjM0LDI0LjM3NSBjIDU3Ljg5NTM3LDQ4LjYxNjQyNiA4My40MTQwNyw5Ni4wNjQ2NyA4My40MTQwNywxNjMuOTQzMzYgMCw3Mi4zMTIyOCAtMzYuMTA3MzEsMTI0LjgyOTc3IC04Mi4wMTk1MywxNjYuMDQ4ODMgbCAxNy42Nzk2OCwxOS42ODc1IGMgNDkuMjAyOTksLTQ0LjE3MzQyIDkwLjc5Njg4LC0xMDQuNDk4MzcgOTAuNzk2ODgsLTE4NS43MzYzMyAwLC03NC44ODE1MiAtMzEuMTU5NDEsLTEzMi4zOTkwMjIgLTkyLjg1NTQ3LC0xODQuMjA3MDMxOSB6IE0gOTYuNTU2NjQxLDc1Ljg4NDc2NiBWIDEwMi4zNDE4IEggMTY2LjQ4MzA1IEMgMTYyLjM5Mjc0LDk0LjU1NDQyIDE1OC40NTE0Myw4Ni44NDE1NDIgMTQ4LjAyMjMzLDc1Ljg4NDc2NiBaIE0gMzE3Ljc3OTMsMjAyLjMwNjY0IHYgMzIuMjkyOTcgbCA1OS45OTAyMywtNDUuNTE3NTggLTU5Ljk5MDIzLC00NS41MTc1OCB2IDMyLjI4NTE2IGggLTY0LjQ3NDYxIHYgMjYuNDU3MDMgeiBNIDUwLjA1ODU5NCwxNzUuODQ5NjEgdiAyNi40NTcwMyBIIDE4Ny4yODEyNSBjIDEuMTU3NDUsLTguMDQ3MzcgMS4yODIzMSwtMTYuNzgzMTUgMCwtMjYuNDU3MDMgeiBtIDQ3LjAzNzEwOSwxMDAuMDQ2ODcgdiAyNi40NTcwNCBoIDUwLjY4MjY3NyBjIDguMDE2NTcsLTguMDE0NjYgMTQuNDYxNjksLTE2LjgxNTA0IDE5LjIyMzU3LC0yNi40NTcwNCB6IiB0cmFuc2Zvcm09Im1hdHJpeCgwLjI2NDU4MzMzLDAsMCwwLjI2NDU4MzMzLC0yNTguNjE5NzUsLTE2LjY2NzcxNSkiIHNvZGlwb2RpOm5vZGV0eXBlcz0iY2NzY2NzY2NjY2NjY2NjY2NjY2NjY2NjY2NjY2NjIi8+JiN4YTsgICAgPHBhdGggaWQ9InBhdGgxNjI3MS03IiBzdHlsZT0iY29sb3I6IzAwMDAwMDtvcGFjaXR5OjE7ZmlsbDojNjY5ZGY2O3N0cm9rZS1saW5lam9pbjpyb3VuZDstaW5rc2NhcGUtc3Ryb2tlOm5vbmU7ZmlsbC1vcGFjaXR5OjEiIGQ9Im0gLTIzNy45NTQwOCw1MS45MDU2ODYgYyAtNC4zNDYzLDEwZS03IC03LjkyMzgyLDMuNTc3NTIxIC03LjkyMzgyLDcuOTIzODI4IDAsNC4zNDYzMDcgMy41Nzc1Miw3LjkyMzgyOCA3LjkyMzgyLDcuOTIzODI4IDQuMzQ2MzEsMCA3LjkyMzgzLC0zLjU3NzUyMSA3LjkyMzgzLC03LjkyMzgyOCAwLC00LjM0NjMwNyAtMy41Nzc1MiwtNy45MjM4MjcgLTcuOTIzODMsLTcuOTIzODI4IHogbSAwLDUgYyAxLjY0NDExLDAgMi45MjM4MywxLjI3OTcxOCAyLjkyMzgzLDIuOTIzODI4IDAsMS42NDQxMSAtMS4yNzk3MiwyLjkyMzgyOCAtMi45MjM4MywyLjkyMzgyOCAtMS42NDQxMSwwIC0yLjkyMzgyLC0xLjI3OTcxOCAtMi45MjM4MiwtMi45MjM4MjggMCwtMS42NDQxMSAxLjI3OTcxLC0yLjkyMzgyOCAyLjkyMzgyLC0yLjkyMzgyOCB6IG0gLTEyLjc4NzYxLC0zMS40ODg1OTMgYyAtNC4zNDYzLDEwZS03IC03LjkyMzgyLDMuNTc3NTIxIC03LjkyMzgyLDcuOTIzODI4IDAsNC4zNDYzMDcgMy41Nzc1Miw3LjkyMzgyOCA3LjkyMzgyLDcuOTIzODI4IDQuMzQ2MzEsMCA3LjkyMzgzLC0zLjU3NzUyMSA3LjkyMzgzLC03LjkyMzgyOCAwLC00LjM0NjMwNyAtMy41Nzc1MiwtNy45MjM4MjcgLTcuOTIzODMsLTcuOTIzODI4IHogbSAwLDUgYyAxLjY0NDExLDAgMi45MjM4MywxLjI3OTcxOCAyLjkyMzgzLDIuOTIzODI4IDAsMS42NDQxMSAtMS4yNzk3MiwyLjkyMzgyOCAtMi45MjM4MywyLjkyMzgyOCAtMS42NDQxMSwwIC0yLjkyMzgyLC0xLjI3OTcxOCAtMi45MjM4MiwtMi45MjM4MjggMCwtMS42NDQxMSAxLjI3OTcxLC0yLjkyMzgyOCAyLjkyMzgyLC0yLjkyMzgyOCB6IG0gMTIuNjE2NTIsLTMxLjQzMTQ5MjkgYyAtNC4zNDYzLDZlLTcgLTcuOTIzODIsMy41Nzc1MjA4IC03LjkyMzgyLDcuOTIzODI4MSAwLDQuMzQ2MzA2OCAzLjU3NzUyLDcuOTIzODI3OCA3LjkyMzgyLDcuOTIzODI3OCA0LjM0NjMxLDAgNy45MjM4MywtMy41Nzc1MjEgNy45MjM4MywtNy45MjM4Mjc4IDAsLTQuMzQ2MzA3MyAtMy41Nzc1MiwtNy45MjM4Mjc1IC03LjkyMzgzLC03LjkyMzgyODEgeiBtIDAsNSBjIDEuNjQ0MTEsMmUtNyAyLjkyMzgzLDEuMjc5NzE4NCAyLjkyMzgzLDIuOTIzODI4MSAwLDEuNjQ0MTA5NiAtMS4yNzk3MiwyLjkyMzgyNzkgLTIuOTIzODMsMi45MjM4Mjc5IC0xLjY0NDExLDAgLTIuOTIzODIsLTEuMjc5NzE4MyAtMi45MjM4MiwtMi45MjM4Mjc5IDAsLTEuNjQ0MTA5NyAxLjI3OTcxLC0yLjkyMzgyNzkgMi45MjM4MiwtMi45MjM4MjgxIHoiLz4mI3hhOyAgPC9nPiYjeGE7PC9zdmc+;" vertex="1" parent="zuihI0vclrm4cLOv70S8-47">
          <mxGeometry x="310" y="446" width="40" height="40" as="geometry" />
        </mxCell>
        <mxCell id="zuihI0vclrm4cLOv70S8-28" value="&lt;b&gt;PRJ-A&lt;/b&gt;" style="sketch=0;points=[[0,0,0],[0.25,0,0],[0.5,0,0],[0.75,0,0],[1,0,0],[1,0.25,0],[1,0.5,0],[1,0.75,0],[1,1,0],[0.75,1,0],[0.5,1,0],[0.25,1,0],[0,1,0],[0,0.75,0],[0,0.5,0],[0,0.25,0]];rounded=1;absoluteArcSize=1;arcSize=2;html=1;strokeColor=none;gradientColor=none;shadow=0;dashed=0;fontSize=12;fontColor=#9E9E9E;align=left;verticalAlign=top;spacing=10;spacingTop=-4;whiteSpace=wrap;fillColor=#F1F8E9;" vertex="1" parent="zuihI0vclrm4cLOv70S8-47">
          <mxGeometry x="420" width="150" height="100" as="geometry" />
        </mxCell>
        <mxCell id="zuihI0vclrm4cLOv70S8-13" value="" style="strokeColor=#dddddd;shadow=1;strokeWidth=1;rounded=1;absoluteArcSize=1;arcSize=2;" vertex="1" parent="zuihI0vclrm4cLOv70S8-47">
          <mxGeometry x="430" y="26" width="120" height="60" as="geometry" />
        </mxCell>
        <mxCell id="zuihI0vclrm4cLOv70S8-14" value="Logging" style="editableCssRules=.*;html=1;fontColor=#999999;shape=image;verticalLabelPosition=middle;verticalAlign=middle;labelPosition=right;align=left;spacingLeft=20;part=1;points=[];imageAspect=0;image=data:image/svg+xml,PHN2ZyB4bWxucz0iaHR0cDovL3d3dy53My5vcmcvMjAwMC9zdmciIHhtbG5zOnY9Imh0dHBzOi8vdmVjdGEuaW8vbmFubyIgd2lkdGg9IjIwIiBoZWlnaHQ9IjE5IiB2aWV3Qm94PSIwIDAgMjAgMTkiPiYjeGE7CTxzdHlsZSB0eXBlPSJ0ZXh0L2NzcyI+JiN4YTsJLnN0MHtmaWxsOiM0Mjg1ZjQ7fSYjeGE7CS5zdDF7ZmlsbDojNjY5ZGY2O30mI3hhOwkuc3Qye2ZpbGw6I2FlY2JmYTt9JiN4YTsJPC9zdHlsZT4mI3hhOwk8ZyBjbGFzcz0ic3QwIj4mI3hhOwkJPHBhdGggZD0iTTQgOWg0djJINHptLTIgN2g2djJIMnoiLz4mI3hhOwkJPHBhdGggZD0iTTQgNEgydjEyaDJ6Ii8+JiN4YTsJPC9nPiYjeGE7CTxwYXRoIGNsYXNzPSJzdDEiIGQ9Ik0yMCAxSDd2NGgxM3ptMCA3SDd2NGgxM3ptMCA3SDd2NGgxM3oiLz4mI3hhOwk8cGF0aCBjbGFzcz0ic3QyIiBkPSJNNiAwSDB2Nmg2eiIvPiYjeGE7PC9zdmc+;" vertex="1" parent="zuihI0vclrm4cLOv70S8-13">
          <mxGeometry width="30" height="28" relative="1" as="geometry">
            <mxPoint x="15" y="16" as="offset" />
          </mxGeometry>
        </mxCell>
        <mxCell id="zuihI0vclrm4cLOv70S8-32" value="&lt;b&gt;PRJ-B&lt;/b&gt;" style="sketch=0;points=[[0,0,0],[0.25,0,0],[0.5,0,0],[0.75,0,0],[1,0,0],[1,0.25,0],[1,0.5,0],[1,0.75,0],[1,1,0],[0.75,1,0],[0.5,1,0],[0.25,1,0],[0,1,0],[0,0.75,0],[0,0.5,0],[0,0.25,0]];rounded=1;absoluteArcSize=1;arcSize=2;html=1;strokeColor=none;gradientColor=none;shadow=0;dashed=0;fontSize=12;fontColor=#9E9E9E;align=left;verticalAlign=top;spacing=10;spacingTop=-4;whiteSpace=wrap;fillColor=#F1F8E9;" vertex="1" parent="zuihI0vclrm4cLOv70S8-47">
          <mxGeometry x="420" y="116" width="150" height="100" as="geometry" />
        </mxCell>
        <mxCell id="zuihI0vclrm4cLOv70S8-40" style="edgeStyle=orthogonalEdgeStyle;rounded=0;orthogonalLoop=1;jettySize=auto;html=1;entryX=1;entryY=0.5;entryDx=0;entryDy=0;" edge="1" parent="zuihI0vclrm4cLOv70S8-47" source="zuihI0vclrm4cLOv70S8-33" target="zuihI0vclrm4cLOv70S8-2">
          <mxGeometry relative="1" as="geometry" />
        </mxCell>
        <mxCell id="zuihI0vclrm4cLOv70S8-33" value="" style="strokeColor=#dddddd;shadow=1;strokeWidth=1;rounded=1;absoluteArcSize=1;arcSize=2;" vertex="1" parent="zuihI0vclrm4cLOv70S8-47">
          <mxGeometry x="430" y="142" width="120" height="60" as="geometry" />
        </mxCell>
        <mxCell id="zuihI0vclrm4cLOv70S8-34" value="Logging" style="editableCssRules=.*;html=1;fontColor=#999999;shape=image;verticalLabelPosition=middle;verticalAlign=middle;labelPosition=right;align=left;spacingLeft=20;part=1;points=[];imageAspect=0;image=data:image/svg+xml,PHN2ZyB4bWxucz0iaHR0cDovL3d3dy53My5vcmcvMjAwMC9zdmciIHhtbG5zOnY9Imh0dHBzOi8vdmVjdGEuaW8vbmFubyIgd2lkdGg9IjIwIiBoZWlnaHQ9IjE5IiB2aWV3Qm94PSIwIDAgMjAgMTkiPiYjeGE7CTxzdHlsZSB0eXBlPSJ0ZXh0L2NzcyI+JiN4YTsJLnN0MHtmaWxsOiM0Mjg1ZjQ7fSYjeGE7CS5zdDF7ZmlsbDojNjY5ZGY2O30mI3hhOwkuc3Qye2ZpbGw6I2FlY2JmYTt9JiN4YTsJPC9zdHlsZT4mI3hhOwk8ZyBjbGFzcz0ic3QwIj4mI3hhOwkJPHBhdGggZD0iTTQgOWg0djJINHptLTIgN2g2djJIMnoiLz4mI3hhOwkJPHBhdGggZD0iTTQgNEgydjEyaDJ6Ii8+JiN4YTsJPC9nPiYjeGE7CTxwYXRoIGNsYXNzPSJzdDEiIGQ9Ik0yMCAxSDd2NGgxM3ptMCA3SDd2NGgxM3ptMCA3SDd2NGgxM3oiLz4mI3hhOwk8cGF0aCBjbGFzcz0ic3QyIiBkPSJNNiAwSDB2Nmg2eiIvPiYjeGE7PC9zdmc+;" vertex="1" parent="zuihI0vclrm4cLOv70S8-33">
          <mxGeometry width="30" height="28" relative="1" as="geometry">
            <mxPoint x="15" y="16" as="offset" />
          </mxGeometry>
        </mxCell>
        <mxCell id="zuihI0vclrm4cLOv70S8-36" value="&lt;b&gt;PRJ-C&lt;/b&gt;" style="sketch=0;points=[[0,0,0],[0.25,0,0],[0.5,0,0],[0.75,0,0],[1,0,0],[1,0.25,0],[1,0.5,0],[1,0.75,0],[1,1,0],[0.75,1,0],[0.5,1,0],[0.25,1,0],[0,1,0],[0,0.75,0],[0,0.5,0],[0,0.25,0]];rounded=1;absoluteArcSize=1;arcSize=2;html=1;strokeColor=none;gradientColor=none;shadow=0;dashed=0;fontSize=12;fontColor=#9E9E9E;align=left;verticalAlign=top;spacing=10;spacingTop=-4;whiteSpace=wrap;fillColor=#F1F8E9;" vertex="1" parent="zuihI0vclrm4cLOv70S8-47">
          <mxGeometry x="420" y="236" width="150" height="100" as="geometry" />
        </mxCell>
        <mxCell id="zuihI0vclrm4cLOv70S8-39" style="edgeStyle=orthogonalEdgeStyle;rounded=0;orthogonalLoop=1;jettySize=auto;html=1;entryX=1;entryY=0.5;entryDx=0;entryDy=0;" edge="1" parent="zuihI0vclrm4cLOv70S8-47" source="zuihI0vclrm4cLOv70S8-37" target="zuihI0vclrm4cLOv70S8-2">
          <mxGeometry relative="1" as="geometry" />
        </mxCell>
        <mxCell id="zuihI0vclrm4cLOv70S8-37" value="" style="strokeColor=#dddddd;shadow=1;strokeWidth=1;rounded=1;absoluteArcSize=1;arcSize=2;" vertex="1" parent="zuihI0vclrm4cLOv70S8-47">
          <mxGeometry x="430" y="262" width="120" height="60" as="geometry" />
        </mxCell>
        <mxCell id="zuihI0vclrm4cLOv70S8-38" value="Logging" style="editableCssRules=.*;html=1;fontColor=#999999;shape=image;verticalLabelPosition=middle;verticalAlign=middle;labelPosition=right;align=left;spacingLeft=20;part=1;points=[];imageAspect=0;image=data:image/svg+xml,PHN2ZyB4bWxucz0iaHR0cDovL3d3dy53My5vcmcvMjAwMC9zdmciIHhtbG5zOnY9Imh0dHBzOi8vdmVjdGEuaW8vbmFubyIgd2lkdGg9IjIwIiBoZWlnaHQ9IjE5IiB2aWV3Qm94PSIwIDAgMjAgMTkiPiYjeGE7CTxzdHlsZSB0eXBlPSJ0ZXh0L2NzcyI+JiN4YTsJLnN0MHtmaWxsOiM0Mjg1ZjQ7fSYjeGE7CS5zdDF7ZmlsbDojNjY5ZGY2O30mI3hhOwkuc3Qye2ZpbGw6I2FlY2JmYTt9JiN4YTsJPC9zdHlsZT4mI3hhOwk8ZyBjbGFzcz0ic3QwIj4mI3hhOwkJPHBhdGggZD0iTTQgOWg0djJINHptLTIgN2g2djJIMnoiLz4mI3hhOwkJPHBhdGggZD0iTTQgNEgydjEyaDJ6Ii8+JiN4YTsJPC9nPiYjeGE7CTxwYXRoIGNsYXNzPSJzdDEiIGQ9Ik0yMCAxSDd2NGgxM3ptMCA3SDd2NGgxM3ptMCA3SDd2NGgxM3oiLz4mI3hhOwk8cGF0aCBjbGFzcz0ic3QyIiBkPSJNNiAwSDB2Nmg2eiIvPiYjeGE7PC9zdmc+;" vertex="1" parent="zuihI0vclrm4cLOv70S8-37">
          <mxGeometry width="30" height="28" relative="1" as="geometry">
            <mxPoint x="15" y="16" as="offset" />
          </mxGeometry>
        </mxCell>
        <mxCell id="zuihI0vclrm4cLOv70S8-42" style="edgeStyle=orthogonalEdgeStyle;rounded=0;orthogonalLoop=1;jettySize=auto;html=1;entryX=1;entryY=0.5;entryDx=0;entryDy=0;" edge="1" parent="zuihI0vclrm4cLOv70S8-47" source="zuihI0vclrm4cLOv70S8-14" target="zuihI0vclrm4cLOv70S8-2">
          <mxGeometry relative="1" as="geometry">
            <Array as="points">
              <mxPoint x="370" y="56" />
              <mxPoint x="370" y="246" />
            </Array>
          </mxGeometry>
        </mxCell>
        <mxCell id="zuihI0vclrm4cLOv70S8-46" style="edgeStyle=orthogonalEdgeStyle;rounded=0;orthogonalLoop=1;jettySize=auto;html=1;" edge="1" parent="zuihI0vclrm4cLOv70S8-47" source="zuihI0vclrm4cLOv70S8-43" target="zuihI0vclrm4cLOv70S8-44">
          <mxGeometry relative="1" as="geometry" />
        </mxCell>
        <mxCell id="zuihI0vclrm4cLOv70S8-43" value="INTERNET" style="ellipse;shape=cloud;whiteSpace=wrap;html=1;" vertex="1" parent="zuihI0vclrm4cLOv70S8-47">
          <mxGeometry x="370" y="356" width="100" height="70" as="geometry" />
        </mxCell>
        <mxCell id="zuihI0vclrm4cLOv70S8-44" value="" style="shape=image;verticalLabelPosition=bottom;labelBackgroundColor=default;verticalAlign=top;aspect=fixed;imageAspect=0;image=data:image/png,iVBORw0KGgoAAAANSUhEUgAAAg4AAAFICAYAAAA4UnbVAAAgAElEQVR4Aey9CXAj13moy5G35OblJfFNnOTlvkRO5EUkgMa+EOSIkmxZurqWHMWjIYBe0SA44+tFshYv0sic4TYcLiDAfV8ArhrZWpxUxVkcx76JYydSJionlvyuc/NeOdf13qvE9SoVeeRhn+f/NA66AQIEwG1I4p+qv7rZ3ejla0z1h//853Tda6+9RjCQAX4H8DuA3wH8DuB3AL8DlXwH6irZCLfBLxN+B/A7gN8B/A7gdwC/A/AdyIlDHf5DAkgACSABJIAEkEAJAkwcURxKAMLFSAAJIAEkgASQgEEAxcFggXNIAAkgASSABJBAGQIoDmUA4WokgASQABJAAkjAIIDiYLDAOSSABJAAEkACSKAMARSHMoBwNRJAAkgACSABJGAQQHEwWOAcEkACSAAJIAEkUIYAikMZQLgaCSABJIAEkAASMAigOBgscA4JIAEkgASQABIoQwDFoQwgXI0EkAASQAJIAAkYBFAcDBY4hwSQABJAAkgACZQhgOJQBhCuRgJIAAkgASSABAwCKA4GC5xDAkgACSABJIAEyhBAcSgDCFcjASSABJAAEkACBgEUB4MFziEBJIAEkAASQAJlCKA4lAGEq5EAEkACSAAJIAGDAIqDwQLnkAASQAJIAAkggTIEUBzKAMLVSAAJIAEkgASQgEEAxcFggXNIAAkgASSABJBAGQIoDmUA4WokgASQABJAAkjAIIDiYLDAOSSABJAAEkACSKAMARSHMoBwNRJAAkgACSABJGAQQHEwWOAcEkACSAAJIAEkUIYAikMZQLgaCSABJIAEkAASMAigOBgscA4JIAEkgASQABIoQwDFoQwgXI0EkAASQAJIAAkYBFAcDBY4hwSQABJAAkgACZQhgOJQBhCuRgJIAAkgASSABAwCKA4GC5xDAkgACSABJIAEyhBAcSgDCFcjASSABJAAEkACBgEUB4MFziEBJIAEkAASQAJlCKA4lAGEq5EAEkACSAAJIAGDAIqDwQLnkAASQAJIAAkggTIEUBzKAMLVSAAJIAEkgASQgEEAxcFggXNIAAkgASSABJBAGQIoDmUA4WokgASQABJAAkjAIIDiYLDAOSSABJAAEkACSKAMARSHMoBwNRJAAkgACSABJGAQQHEwWOAcEkACSAAJIAEkUIYAikMZQLgaCSABJIAEkAASMAigOBgscA4JIAEkgASQABIoQwDFoQwgXI0EkAASQAJIAAkYBFAcDBY4hwSQABJAAkgACZQhgOJQBhCuRgJIAAkgASSABAwCKA4GC5xDAkgACSABJIAEyhBAcSgDCFcjASSABJAAEkACBgEUB4MFziEBJIAEkAASQAJlCKA4lAGEq5EAEkACSAAJIAGDAIqDwQLnkAASQAJIAAkggTIEUBzKAMLVSAAJIAEkgASQgEEAxcFggXNIAAkgASSABJBAGQIoDmUA4WokgASQABJAAkjAIIDiYLDAOSSABJAAEkACSKAMARSHMoBwNRJAAkgACSABJGAQQHEwWOAcEkACSAAJIAEkUIYAikMZQLgaCSABJIAEkAASMAigOBgscA4JIAEkgASQABIoQwDFoQwgXI0EkAASQAJIAAkYBFAcDBY4hwSQABJAAkgACZQhgOJQBhCuRgJIAAkgASSABAwCKA4GC5xDAkgACSABJIAEyhBAcSgDCFcjASSABJAAEkACBgEUB4MFziEBJIAEkAASQAJlCKA4lAGEq5EAEkACSAAJIAGDAIqDwQLnkAASQAJIAAkggTIEUBzKAMLVSAAJIAEkgASQgEEAxcFggXNIAAkgASSABJBAGQIoDmUA4WokgASQABJAAkjAIIDiYLDAOSSABJAAEkACSKAMARSHMoBwNRJAAkgACSABJGAQQHEwWOAcEkACN40AOVVXZ478EyF15FRFQcgptXHCovpGBYiod7Rb8SXTqjfx11Kg+69b73zyk8Z+6k6ROj3yj4Z/IQEksBMBFIed6OA6JIAEDpwAPMhb6lreCnGm7sxbOuo6boFl5gPThz0hp8TTFxzi6UsOoemiEGnqfIpv6pyMBLv+gG/sfVX0pTTVsazFbc/mxTnrhnbeltHanBOaELw0geJgJovzSKB6AigO1TPDTyABJLDPBL7aQd4a8y6/W/FP+ST/6MOSP/VJyZcakHzJtOwd+TPJO6Yp7glNcU9pUddMNma1qCsbznkqDW3cmha3baA47PP9wd0hATMBFAczDZxHAkjgQAgI9/T/nHC673ahsfcuPtgbExt7vyAFepcU/+WvRN2j/9DGPfv/tVtf/Pe47dkfx7m1N2nY127EubWtOLemgRDkx4bWxhmhywIIAwsj62DOOIjBS3+NGYcDucW40xoigOJQQzcbLxUJHBQBuWXs12K+lD/mSz6oepKfinqGe1X38JrqHv6q6kl9X3VNvak6Z7ZU54ymOmdIm2M2F3H7IonbNkjc9qw+hayBLgwgDTTypQEkwpAGmDeEgc1vF4e4c0KTAigOB/UdwP3WDgEUh9q513ilSGDXBPjmbmeouecj4aaeT4abe/r5YPcG3zjwl4pnTGtzzGtx+7J2zpbRzltXisY524qWH2vaORsNcs62RrKCAFMWIA9snuxZHKwrWtwxo0W9gxpmHHb9NcAPIgFKAMUBvwhIoMYJyIGR9/PB4Q8KwSE10nRllEbjwB9HAkOvR/wpjfeNaaJ3SpM8M5riZvUFkDmY1docizlpAHFgcnDeuqbpkS8SbH1WGkAemDhQUYjZVkk2NNM8LIO/TbGuxWxGtFnXtfzY1NqsEOtau3VVO2fJaOesaa3dtqARwnpoYK+KGv/q4+XvkgCKwy7B4ceQwHEgoDw4+L+rH0wEw83drZHmnicjTd2jkWD3C5Fg9yu8f+h61Dl/XbWvXI86MprizGiSa1GT3POa6F7MxrImuTJa1LGiqfYVrS0bcW5FMwKEQQ9YpstBLqPAMgulplQc2myrBGJnWdidOLTZVrV2a0Y7Z1nVPtawrv3XxtHf0rMOKA7H4TuM53j0CKA4HL17gmd0MwiQulN1e426OuhCmB0bgP2qrWyaP4ZBZZ+BX85y4xW75B98QPAMflLwDgyJ3sEvCp7EtyT38P+UXCOa7JjQZMcUKRaKfZaotmWi2tIQGoTCLdOQuWXNCH0drI9Z86MNujnqQeLcCmmz65FrZqC1C1C/sEHOWfU4b90gEPB3u2WdtFnXc9KgWleIKTTVukJDsa2Q/Fgjik0P1bpGtscGUa0QayRmXSFxS1prb1jRztevaTFnyo/icDP+k+ExTwoBFIeTcifxOvZGYC/SQGWhwod9FQMZiU09740Euu8ONfYooWDXM+FA52zY3/UVwd/7D5J7WFMcE5pqW6QP/OwDncSsaRbbHvKFD/2d/mYiwaaltoVf83pkqDSo9hWSH2tEta9lhSJD2hyLJG5fplkGkAcmDizTYJIGs0AUSANIhCEOMF+NOKj2kY+gOOztvwt+urYJoDjU9v3Hq2cE9iAO+uiDVYgDIaciLX3/iQ9eaY74B8+GfYnHw77hZNg7/KWwb/ga7x7RJOeUJjumTTGlKXYW05rKzVJpiFmX9yQIpYSg0uVMHODBD4IQdawQxQmRIYpzmSiuRaK45oniniGKZ+xVyTf0ZcWbehXkwSwOTBhka4ZUFqtEthoRtayS/FgnUQvEKlEtGdLWsKzF6zPaudtXScyROq8PMsWyQzRTxL4JOEUCSKAMARSHMoBwdY0QyImDedjj/HmjGr+MJBByqvWOJ5pb7/hcc6jpsx8LBS/0RvyXV8K+oWuCN3WNd49pgnNaE5yzmmRf1CQ7NAukNcW2kguWomfTSh/kh70diAMULUa5VRJ1rFFpkFzLRHLPEtE7QUR/6lXRPyTFg8O/aeYHf6uuyS/H7AskxmVy2YXKpAHkwpAGmM+XBvi7tDhEHclLKA418v8aL/NACKA4HAhW3OmxI0DFoYwQQDMDDHscGPLS8CY+LXoTn5Y9w9OSO/UtwZP6Fu8Z1njPUEGkNME1ZmQR7LOabJ/XZPuipnAQy5oCNQbZ9vxi070LwYoWs5ojv1Zh1/un4rCuRbn1rDhkiOSeJ7xvlAiBvh6jB4POziwPMA/1Gapz9v+WbUtFMw1RS4ZAbBeKPYiDPTXtqnO9Db6j+K6KY/c/FU/4CBBAcTgCNwFP4QgQAHHIisGZ5i7vmebOj55p6vr0w8GuxNlg53PhwKVv8d5+TeHmtZhlbVvQh70tTQsKJce8lhf2xawkLGdrEqAugQUsgzg54iB6p4jQ2LdeKAnCBz7zm613fu6BwuWQfZC5mT8plAMmDXsVB/i8ajGaKlRH4sVfrfvVn4NvHYrDEfi/h6dw7AigOBy7W4YnfCAEsuJwprFXC7tmafCuWQ0CmhSgaQFkQM8MmMVhQ4tZINY01bqmKbY1TeZWjIC/bfpyWMcEQ69NgPoEFnoGgBUjFmYd8rMFK7poZHtCwGfKZQwK95c7TnYf5T5fcj2X0ZsqbJskat+gdQ2if+TVvEyDqSBUCvR/OR68nNdsASLRcWbz7bJtJScPZmnYL3GAOodzt2c02ZH41i/U/eYvMWmA6YF8p3CnSOCEEkBxOKE3Fi+rSgIECuXIqVb/8KsSt6FByDYj4KGvP/h1QTCyDkwcNjTVqodi3dAgVMtmNq4a81ZdHkAE4hbWdAAP/mUtBlkIKHpkke0xoT/0DVnJScBexAGaRar4/I7iwGVojQMUQ0qeCSIHrzQXZhXY34pv9HNR99iX2d80y1NHTtXXnXk7lQdu7k+i1mXIENCiRiYQhdmIymocWO0DZBwyml4gCeNSDP1fP1d366/p56AXSFb5bcHNkUBNE0BxqOnbjxefI5AVh7B36CXIEJizBGZhgKzC9shKQ04UdGGINWxqRmTlISsXNEvB1kPTh21Ri3FTmuoc0lRnv6Y4hzTFMabXQIC0MBGhn2fnkP/wpyKwQ51ETjiKbZOTCFPTSW5ZsYyGIT3Q7KLYp4nkShEhcOkZJgXFplF/4gOyc4wIH/gCzTqw8Sty2xJyKmab/5OYdZl2K82OMUFAJiBkGttrHrYXRzJp0KcgDtBcoVqWNNE1eJ0QQl/dzeQh9z3AGSSABMoSQHEoiwg3qAkCWXGI+BKjLLtgnoIssOaI7eIAD3JzhsEsDGz+KpUImoXIPvyh2UOGQknX2Hdl1+Bn2rw9782l+Ak5JQW675bdQ89L0C0Tsh/WL2qy9aqmWDd1kchmL8yZgx3lICcMazmh0a/FLCC7EAduXpOdKSL6O9dz529qnoCHM8ss0HoG5xiJBLpygkEH3jJt/+iHZt+pOCe+q3LzRLUt0kGq8sUBBCJfHsqKQ8OqFrUua1Hrkia6Ez8R7nn8XTlZwaaKmvgvjhe5fwRQHPaPJe7pOBPIigPvT3zaLAxsvrgssF/+WXGgQqBnH4xMAxMHfaqLwwotshTciecjzc/cbTzAivTqIOSU4O9ICva0Jllf0iTr84Y80OYT6MJpjOxYShzyu3puaPH657V4/QvfjDdclVTryg+z8vFNvVAzW6xpS7PlRWoo9IwDHE+xT2uyp7ekNJjFAcRCdo4QwTPwLXbdheIAy9XA0DsVxxhRuezolpblEr0rdIEoJQ5qwzqBiFpWtaglo8m2JY13p27wd3U42fH18zvOX148dyRwuARQHA6XNx7tqBIwMg4fZbJgnu5JHCwgE2v6UM72WU1wj/TBAFDmB1e5ecE9/bxku6pJtk2afTDOzSQOuYyCPkyzWSKYOLBhpKNc5jF4iEe5xQmFW/jmOfeaQ+EWfig7pn8ou6YvK+6ZkOyAQaj0gaigN0muJwg3rymQKXFMaZJr4t8F38AzpTIN7LpYxgH+FjxDtFmDfaaYOMB2srfnI4p9ikCzBdQ8lKp30JfnN00wkdgmDtZljXeN3uBbOu5l5wbTo/q1xPNCAkeRAIrDUbwreE6HTyArDjA+g/FQNveGMGcXis1n6xxMWQdWLEl/lXPz3xU9wx9jD0vzQ0ufZ6MYGlmHs3d/+r257aDpwjl7DcZ/MI/9wITALAnF5uGaYJAp2TH7QzGQctD9wgiWvj4qEJJr7jEQBnp+hJwKBTq/GQpc+mHYf+mHvK/3h4I7pUlOeO/FhCa5R/6d9w38XSh4qYQwsGvRu7gW1jGE/d1Eco0Qsan/A3AepcQB1imuVDJuSeekgclD4VRtWCXFQ884sKyDbM1ovGvyBt/cHcuxRXE4/P9veMRjTQDF4VjfPjz5fSOQFQd4cEK3S30kx72LQ8y2+edRR/r3igkDvBCLBhybHl/v2cEeaB/94KfvPnv35/LkQXYNXFMcI7R5QB84CjIOZpEplm2AWop5jfdM/FA8nZUGU00BPV7uVdOGuLDzyE1hm7LbZXsp0O6tJnEgRp1DOPCFb0FzhegZ2DbWQ+5Y2fODegfVPvVdNkBUoTCwv4tLA8iEWRzWNdm6qomOqRthf9fn4bvDjrdv3yPcERKoAQIoDjVwk/ESKyDAxKGOnAr7+rNjNlQjDuaHNxRS6t00Iesg2+f/R8Q/0BdpedLUPGFIA/3FXUweCDn14B0XkuzhRqeEnFLcXc8rzhStk6C9P6yb2Z4e26UBsg+yff75iD8pmR/6hVmAvGMUSkWFf+v7LHjLKM0oQFbBJA6NHesgDrQXRrZ3xU7H5wMdHxEdk7QgkolC4bQqcbDPbIW9PePmY1bwDcFNkAASyBJAccCvAhIAAiZxaG3sfBV6MpibLMrXOOSLA93etvY/VNvqxx4NbP5swUNKzzSYMg70+EXk4cE7LiXP3t1hZB3gIQ5ZEX/HA5J76Bq8DIsOTEVfh71Ih7WG12lLrtF/FDypx5Tm1K/kH1t/gDNxOJQpSIMpUxEKdjwD4qA4Jojgu5LrXWE+z8J53j34dYlb0LtlZoehNstDJeKgNqxrUCQpcTNa2Nuzqb+vQs+w4H8CJIAEKieA4lA5K9zyZBOgA0DBAyscuPQSjBSp/5rXB3NigzqZZcI8r1ftQ+W+EYp1aSPqXLiy/Zd+NttQTBzoK7qNJosHT18KP3S66+nCByn9m5BT4aanzvD+zrTkGntD8Iy80Rp85ttn7/j0GfMxzZ/NEwX6fo7cuezx7hpCwo6XdyxT1kJovnSH3mNinij2WWK8AMuojdBHdTSaTYRgV5PsmKDdM2PWFVI2LGskZgomFlA0KXEzJOLt+lt2njhy5B5vPX685gigONTcLccLLkEgJw6twY5RwTVFxWGbPJiGjy4tDnq3P9E5/qqQ91ZIU/MEkwY2zT7Et9U6EHLqoeZLPyglArmHH7yRs6Xj1tzfpgd1rpaCHQum+dKwD70KDHH48Ifjv/zQvW2eYudCl2W7ZNJBnixrRHaOJ/K3LS4QkjvxdRjboaw0gFiYpAHmzeIgczOE9/agOJT4j4CLkUA5AigO5Qjh+hohYPy6DQUvfJZ3T2gSvHOiyCiSZmFg8zBGgB6rdKwAxT31ZOHDvugDvOBhTsWBNpsYWYeHmp/5xtk7njiT/3A1znen5fqv/lxWIb+JxHzsPd9lQxzgfM7c+eT7Hjr91PpDd1woKhCSZ+ilmDVNJQCyDtD10riO4uIg+nqjMELlXsQBBCJqXSCiM0nY8bL3Zc8EcAdIoFYIoDjUyp3G6yxDwHgQh5qeCvHuMU2yw9sudXlgglBqSqXBukylIeqZpt0Mcw+mXA+DnR7g8ODN9q4oFIeWzz19tumpb7P97TStQhQKJaIMn7Kr6eiQcHx2fmc+1PHOs8GO9bPBznU2xDRbB80TCowMSZsdlolqHyMw6BNbr0+ZQGT3CYWhjok9iwOMCSFzU4SJHc2+lL083AAJIAFGAMWBkcBpTRMwP7DCzU95efeIIQ6c3uWxmDSwokkYH0CxLb0ady3lvfmR/prdURyMX+pUHHI1DkbG4exdTzhbGzvf4JvzRzs0nzObv7niYIgRq1H4xH2pdwj+nnXJOUUU53icPazhfAXPeEKxQbPCBonZ5onqHL0G3S/Ztej7MDjAcsU9vBq3rJCy0bBG4qZoq18luWigr9kmkm/ABftEcajp//p48bsggOKwC2j4kZNHwHhY6b0WqhUHxZZ5VbLPP8m7Ehvs13WujqBicYBf1gW/srO9KEKBvjdC/ivpvPM0/bpny7Np98JsQiV/7/WmGnUT2foJJg8gC4JnNKHap8h5+8BLn3QNU7kyi0PcskzitlkS4yZfMsuFfl16TQbMy+7BaFlpALEwSQPM56QhJxDrRPIlURz2etfx8zVJAMWhJm87XnQhAfbgpVNCTlUqDiwLAeMlSPYpLeTrvcL2VZk4sF/peuaBfbZwGvL3p0O+1BvbH6pG0wB85qaJQ1YWzNecE4es4ESCTyVU5xBp5yb+O2RmFPvcS/D2S71mYZlmHWIgD/bxAnkwxCHqG2iqpMahEnGQ3clWykwXu8KvBP6NBJBACQIoDiXA4OLaIlD4oObdI9+jQzTTZorSTRUgDmyIZ8k58qr5wW5+iJZ/oJcRB9/Qx3j31Buhxt6PFZ6r+e/yx2Gism26txteRBzYuZjPT/D1JVRuGiThv8dsi/Q9FPortEEcFmlAzwnFPvlSfrOFLkhR3/D+iYMz8QicG71Pe7t6/DQSqCkCKA41dbvxYksTyP/lLniSfwRvnaz0XRBttowW86TOs4dk+VoDc21D/rHZPszTNu/oexVucUvwDuWKJPVjmPezTQaqyUCURrMva4xrVFypcV0e4JXZ+muzdXlIE8hAQCi2NJEdc9cU11TeWywl99ijepYCMhXmyB/boVzGIX77OpGciT6dMeW2L1eJO0ECtUAAxaEW7jJeYwUE8n/xC96h2YrFwbasxewz/2JkGyp5gJsf+MZD1SwLefPQo8A+tSU7U1tikz6SZL44VHLMHbepgNEeNjGNzAmcFOfIS7QgEnpW0MyD3mQBvSxU6xpRrBu5kJzzG5HAlWjY3/uo7JimYpEvDay5w5CHisTBlfgSisMe7il+tGYJoDjU7K3HC88nYDzI4WEieIY+q9rSWi52emW1fVaTfIN/yh70LEW/89Q4HggA++xOU953+duyc2SL93Vfgu2qawrZURogM3Gw/2gdgek6CTkVs0++pHKz2axDmgpDoTQotjUic2kiOWaJ5JgmCgcZCiMzkZunwgHSocsDisPB3k7ce20TQHGo7fuPV58jYDzI4aEseROhnDSAQOwgDrJjWpMCfRvsob+zMLAHuHG8SsUhHHzmEoiD4B3Mb67Qi/uqaZYotm2OxIHMmGogGCfIPMiukb+DAaCoABRkGmjWwbZGQB6g26YeejNGThiYROxCHGRHMjd65IFcM+4UCZxQAigOJ/TG4mVVS8B4kMODTfYONcesaY3FTuKgcPOa4huuKuOQe3hWmG2A7cNNz5yRnWPZ5grjddvZ4r5iMlDNsmqBVbe9SRzMoqS29N4mO8eIwi3TpgnVukHyY01vuqhYHPR3VFSScYhy4+bRI6u7HtwaCdQwARSHGr75eOlmAvniAL+GVduiFrMuU3nYWRwWtahrSjNqHNi+WHZh+3Q34gC1DZJrZAvkQQg8kxuC+liIQ13HLaWumfd1x6EpAjIM+dIAf1cvDvAZeD+FWR7yx3FYJ1AcGeUmjdEjzV8FnEcCSGBHAigOO+LBlbVDIPuwZ69/hjS6Y1oDeYAmi5h1hUZRgYCmDMeiJvkTT5ofjjs1WZi3q3geXqedFQc+8Mwk+1xerQP7ZZ//HorSmQdj+wO91eZXWLPzNk/D3rFrsk0viMyXh92LA33RVbbmgb3kSm1YJ231EKtUHBRfRz2cx4FePO4cCZwwAigOJ+yG4uXslkCBOECBpHvke4p9tiJxaLNnNNUzZupZQR9GJR/Y5odmNfOCO7UlO6a3eG+fUefAHv7maaXiANvB5w7435m6M2+BjAzf9PS9NFo+e5v5unl/winZF2kdw17EAV6bDRmHNus6iTakCbyXAnpgqJYMzUKo9RuEykNDJisOPSgOB3zvcfcnjwCKw8m7p3hFuyIAvRT0YA+0sP/KH8mOKb1nBSuONPe0MM2DOERdM5roH0ixz+d3l9TFhK2rdsrqAnhP4gcyt7wlOOa3WNNI0YyDWSIOQQzKIe9o6Xir4Ov7O9k5QmTHBIG6BtE79KdiY0+gvu7M2yFE78CX9Rdf6VkG1kyhT/UeE3p3TdM8K46EabYrZ8y2SSVBqQdpWCZtsM6SIXHbBok1bJK49SqJNizRF2t9tP7xB+FelDt/XI8EkIBBAMXBYIFztUwgKw1UHrIFi+FA56zknNAUbtmQB5Ms0CYMLqPFaOjNFYp7QuNbenO/ps3yUK0smLdn4hD2pH4g29a2BG5jK9w84aUPvUJJKPb3Tb63rrr426L26Yxqg4e53mUS5mXH1L9GvQkqD6L/8n20h0W2rqFacYhaMqTd8Sxp454l0foVKgvt9pWsOCxnMw7Pko+7XtSXOUZIhHvqHIrDTf5y4OGPHQEUh2N3y/CED4RAEXFobezsyBOHAmkoFIc2+7Je6+AdfSWXDaC/Zk3jF1TRi8IsDnQeUv2uqa2cOARHVComxUShcNmBQKt8p/H41Nt0aTAGa4IuldCbQnZM/2vMO/LujjObb6fjNOxBHKCpImpZp80VIBIxbolI9bMk/J5pojSARHyRxLnnCP++GRJ3j5O4v4eOHln5leCWSAAJoDjgdwAJAIEi4hBq7FSqE4eMRmsdnPOa7E/mNVlsk4BdCES4uc8rOKepOEjcxlarL7l9IKhCYWB/l7nLwj0d7zob7L4vFOxsh4gEu84K9zz+rjIfq3i1LgUwSqQhDpB5gOYFaJ6Q3MkuaK6I2he/nJ9pYM0WpuYJ05gNdH9chu5Xrl8mbRy8onuTgEC0cWsk7kgTuWGOKJYlKg5K/Sb5hPfLpM0ONQ6jJGJ9CsWh4ruIGyIBndhotxEAACAASURBVACKA34TkAAQKCIOfHO3s3JxAGlYyUZGU0EeGhPCfggD28fDwc5LTBxk28ZWyDdMe1bspcZB8gw8pjhHvic7puCXPx2dEUZohHne20/OCR37Ig96DcPQn4IksKYKNlXs04T3df81bKPaZ7tobwiL3qWSzW+rbWDyYEuTNmiOsK8QyDCAdIA4wBTEIcaliWJZ1LfhNggTh3bnKuFvHya/9zufocNO438CJIAEKieA4lA5K9zyJBMoIg5nmzucgmvMqHHYsanCLA66QCjuKS18x8V9k4eQf+AHkmOeZhxAHCJ7EAfR33tWcUx/j/5it2zQ9n94SJt/7cvOiY79uuWuOtfbQo2XAiAoTBjYFOoaBE8/oeLALUSZLJinO4kDXAO9Dtsq4d+7SOT6VRK3bxLp9iUqDdBEIrxvgWYjzjtfJPLta6T1dyZIm3OGhN7X8V0Qs/26TtwPEqgFAigOtXCX8RrLEygiDlCnILhTuxYH1bGsgTwIwU6VZQ0Kp6x4snB54d/hQJ8K0qDY0luKbW1rL+Ig+HofU+xT+sO24Je9/rAGkdiArMPflgdX2RYgDvV19W+XXKMZJgxsCg99yERAc0abI3OfWRjY/E7iELUuZ7MNkHXQaxygnkFpSJMYlyGwnkpEwxqtb4DiSah5iDvniOoc/i7c58quArdCAkgACKA44PcACQCBAnFgvRh4z3DF4qD3rmC9LPQpNF8onlEt0vL4I4UywKSBTQvXs7+Fls9bJOfYlmpd21KtK9lY2+I9iaprHIRgl5u+0hpeSW3KNNCHOJUIXRpgHWQCeH/vPmUdWt4K4gByIDvH/hWaJ3IvrIJeFpY1Kg4x2+a7mSyYpyXFwbpCxQCaKaC+Qbp9hTZVQMYBxKHduUaE988R8f2L5OPeFwn/njTNSHyq8Uvkw7/eQ564e4WOHon/CZAAEqicAIpD5axwy5NMgBUR0qkx5oLgG/g6dMc0v2Jbsa1o2yOtRbnMtoDPSY55jfeNkdamQXhK0TdhUlkwywqbLyialBqv3BN1j2kx27wWt6TzIuoeopmMamocJM/ACzAgUtyykjckM/tblwm96QLeXCl7e/cp69BxC/v6nG35vCXs631dcI8Q2T6vD/pk2SQx24vv/rj3xXfDOZibTHae12sboDBSfD80SaSJ0rBGCyFhmVS/QCLvnSEwD8tBHMT3Z6hIwOu8P9GYJh/7z2O/xs4Np0gACZQngOJQnhFuUQsE8sRBH00RfvGH/QOZvYhDlFvVFPuqJjgzJOJZJmH/1HfO3jnIwb5ZpoFNWYaBTmF4aX/ifJtjXmu3ZrRz1jSNdsuyFrcuanHblCb7e2/V95Md/bHINWRHhcyl4mXX8L+Y3+GQmweRsOi//OkvfSg+5KaJ5O3+t/25/YY4FNuf6B65jy3Xu2RCL4r8movif7OiyBWacRDet0TfdwHZB5inBZK2VSoVsAy6avLvXSbnXc/SnhVn3j1MzjoucezYOEUCSKA8ARSH8oxwi1ogUOShCw/lsL+vQ+EWK8o46FmJdHbb7NSui4PsyBDJlSGie5nw3lktEhhdOXvnZSoQecIAr/SGLINn9DsgDXEus00cYty0Jnv6Muxz9J0YhedvGnI6Kxf0LiqOse2Zhqw0UHEwDc4E28reS/skDpXXEfDeAZqJKC4KxWUiZlun4gBZBwj4LIiCXJ+hweahvqHd8Rxp/e1pwr9vlpxzrRHRe+W/1MJXHK8RCewXARSH/SKJ+zneBAofvKSONinwvj5l9+KworGMg2JfJYpzhYbkXCEQomeehJoGv9Pa1L0SCV4elQIDo4p39Duqc4YKwznbmnbOtmIShwUtxk1pUffA11iThy4P2bdvmq+hhDhEHWMlMw5Q50BrCbLFirIzRQRfxz41VVT+9QgFv/BV6H1RrTicc16lxZEgC/BZGEUSah2YVEi3p0ncfpV83Ps8lQmoe4A6CMk3pFR+drglEkACKA74HUACQMD80M3Ow0OZ919xgjjAKJFF34zJ3mFRdLqmRbl1GiAOUccaUUwBGQjJPU8kzwxRXLNa1DlPR56EQaTi3IoW59ZosKaKdpZpYG/wzKuH2P7qbuPtnMavfcWZeiHXPAG9DBo2aOh1BRtEsa0Ryb5MBOc04T3DJBzo/NRhf0GEe55+t+ScqFgcQAwg9J4UUBy5TkASIMsAMgEiAb0tYBnMg0yAVEDmIfKeJfLh2y49c9jXiMdDAseZAIrDcb57eO77R2BHcZjfhTisaap1Z3GQXcvfEb1TK6J3QpM8MxqVBxCIglBdU5rqTHwt6uu8hzVPbJ9ChmQnedBRSf6eB1Q6CFM622Shv/hJtWwSmVshgmOe8O4xEvL1/9vDwUsv7B/g6vYk+gfuk3NvyyzePGHOSDAxgGYKEAgmCDCv1zpskMh7FmiAUMAbOKHZos12lYjekZHqzg63RgK1TQDFobbvP149I1BCHKBJQHZN610yi2YVVkpkIraLA22ugCYL+yqR7ask4p1ZAQE4e+cFLnxH53loruCDvb/PAv4ON18+L7d00CLI7bJgfgdGZeIAlyu5B14AeWCZB9r10rrxb5Jj8YWwb+hTfEvHbQzLzZwK7pEu/VXb5cUBROG867lcUwXLQoBQQHYB1oVvm6cDQX3M/UWaiYARJsX3rZBoYPJLN/M68dhI4LgRQHE4bncMz/dgCJQShzpySvQkNYWbLyEIO4sDZB0UG8QKFQazPES8o1QcdhYCsxzsNK+LA6190Ac0OgXzRnOFgQ3GUhB9vS9I7mEiuYdh+oCx9mjN8e7xr8rcst5ls6JeFms5eQBpAIEwF0pCTQPUcUCzBWQdYtZnycda5v/iaF01ng0SONoEUByO9v3BszsCBET/5b+UuRmiNqxWH9mHHdQOFAbvSW4cgcs70qcQvqvrt0T3+HXFniZReHlVNiBboIcuBqzZQn9fxQpR6pfpa7Whaym9b/CmzGyPkSjIQ+5erhPelSRHGgKeHBI4YgRQHI7YDcHTOXoExGDXusxNmR42VQiE6VcyEwf2kBNRHCq62YJ/4JziWMhJA8jDTuJA5QFeeAXBBIH9zaZsecMqEZ0pFIeK7gRuhAR0AigO+E1AAmUI8I3dl3ctDtkHFKTNzaE2wC/dBGYcyrBnq2Xn3J8oXGUZhzxxYKKww1SyT5LoA30/z46FUySABHYmgOKwMx9ciwTq+Mae83sVB/jla4jDOgFxEJ2pa4i3MgJCY9IiOxZ/RLu1VpNx2EEYaEbCkiFwb+XTV95T2ZngVkgACaA44HcACZQhIAa774OHS1v9ahWxTtrqjQBRyIv6DSI6x1EcyrA3rw77B78gO5ZokwU0VbRZIdbpC7JY8w9kG6rNOFApPH35tPlYOI8EkEBpAigOpdngGiRACSjNHfUyN1mFNIBgGNIA83nSABJRv0Ek+xS2rVf5HZPc0z8ypGH/xEE53Xu2ylPBzZFAzRJAcajZW48XXikB4Z7+n5Mco3qxXYnUd7lsxDZxaFgn0FMjFLzUUOl5nMTt1MaB35J9wx+M+JPnQoHUlVBgOBfQo6LwmkXv6JWDEAc52PdI4bHwbySABIoTQHEozgWXIoE8AqIz9f+wNvFi012Jg22B8N5BMe9AJ/wPkIFIoOeRcGPv84Jv8LrimLse5VavK9z6ddm+eV22w3T1uuzIXI/4kn9ZiANqHaJchjZRmJsqaLdLK4zhsLumCrmp93LhsfBvJIAEihNAcSjOBZcigTwCojvx7WLCUHKZqbsf6xJoFEdCoeQ6ka1QmDc/l3egE/pHJND3iOgZ/SvZNU0UxxyNqH2BxLISYHSvzL6UyrpOZE/x8RWijhnSZsuQdovRVEFfBQ5jNpTICO20HGocxKbeL55Q9HhZSGDfCaA47DtS3OFJJMC7h6/u9PDZtq5AHPKlQRcHXR5W/9+TyMt8TaHmp58AYWDDQMMUihrNARJgjnMNm0TxJP/RvB82H3WPvNxmS+eJAxs+e9t9qEAkoH4FxYHRxSkSKE8AxaE8I9wCCdQJnqGBqHWZlIpyD6zt4mB0z5Q8wye6or/19BN/JrvGdyMOi8W+eqK/fzFmX9hnceh5tdixcBkSQALbCaA4bGeCS5DANgKiN/GJUtIAy/ciDoI7caKbKx5ueeTPZPdo5eJgXSVt3BKJ+ftu33Yj6urqRH/XYsw+l81Q6N0x95ZxmCHRQOInxY6Fy5AAEthOAMVhOxNcggS2ERA8Qx+m4lBB6ruYROyUceBdib/fdsATtODsPZ+0SJ7RH1XaVBHjlojsHSqabQAssr9rsY2bI9Cc0W5Zz73lE+ShGPtiy9oaMgRCX7dE2t1zP4nHp952grDjpSCBAyOA4nBgaHHHJ4mA6Bu2ydBUgeKwq9sK3S6jrsm/ijrmSIxLk5hNf3OlUeegFzpC0aPiGifC6aeLZhvg4DlxsKzvkzhkyHn76o325lT9ri4OP4QEaowAikON3XC83N0RkFsWfkayHZA4uBMnvkCSUZd9/Y8orvEfReFtl9y6qflik/awgB4Tor/n82z7YlMqDvYZ0m5dpcHeegnTYtmFYsvyMw4oDsU44zIkUIoAikMpMrgcCZgI3FrX8jMSN0Oi1qWKH07mB9ZOTRWiY7SmRpBUG7t+S/SmRmTX5I8U5wwBWYCAOgjR31uyiYLdjqhn4GVa4wC1EJC5yL4uey/icM62thV1jz/AjoFTJIAEShNAcSjNBtcggRyBjrqOW0R3/7ejtjnjVc0FXS7peA27aMoAGZE9kw+F/f3J3AFrZEZp7LxLDnQ9IgcuPcI3f/7+cpcdDfb9PMgG1EFAswZEzJrOyQMrYDVLG8yzDENuWvDekXbrqhbnlh9VfJP1omf4rOBKJSPNHdh0Ue6G4PqaJIDiUJO3HS+6WgIgDryn6yoME80GdCo63YU4wH5ito2kYl/+XrQp8dvhpo7frvb8amV7vjFxv2JP6wNHlRKHIvcgJwzZosjCkT7jlhUtblkx3dt1AgJRK1zxOpFANQRQHKqhhdvWLAEQh4ivK6mLg/mlVaumh81q5c0YhdkK68aWYlvbku3LbaJr/KWwv++hg4AtNg89eBD7Pax98v7BcV0cQB70UG1pwiI35HQB35wolBYHguJwWHcRj3PcCaA4HPc7iOd/KASoOHi7P7FdHEAiTPJQ5NduYdqc/m3+DMxbN7YgYrbNlxRu5XuSY3Yr3NS775kHITA5IXsXXhTv6vqNQwFXwUHO3v3p90JUsGmd4E2+DIWVTBpgqtqWdXGwrmTfVWG6H1nO5cSBZSSMe7lOBPfwo5WcE26DBGqNAIpDrd1xvN5dEQBxEPxdH5Ztc6StfsMU+uuzcw+c3YmDplo3WGyp1rUtxbayJbomXtrVye7woUfPDP0s35j8WiQ4cD1858Wbnn34WMvY/xL1DH6fb3ymbH1D6x0XmukIlNlMA5OHfHHQR+QsfBtpoTjE61cJRG55dh7uo17Iuk4E11DN1Zzs8NXBVUggRwDFIYcCZ5BAaQIgDqHmDhtkHA5eHDa2VMvmlswtbx1EzQPIQySY+Fqoaej6wy0XXzxz11M3LfsQd8z8ccwx+f3S5I01fGDgZb0wsjDjkCYqdMWkGQf9PSD54gBNSMtEtS6QqG2GRG1TRLXqU3hPhcJNvixzU+tRbu5lvaljnb6ETHAn1o2j4xwSQAKMAIoDI4FTJLADARCHjo6OWyT7JIGHkiEP+5VxWNNUKws9+wA1Dwq3nJRcE0nB09+2w+lVvQrkIdSUeLG1eeh6pDF5XfFNXjzXOPGuqne0yw9ApgGkod22RKLu0UfK7UYODjXL0HXTvpTXTKE3VWwXh2jDBskFvGrbNkVkR/KHovvKH/Kenn7ee1nkvZe4zTObbzlTd+YtcHzBPfCoxC0QGd5calknvHvw5XLnheuRQC0SQHGoxbuO11w1ASoO0CXTMZqtaWDycBDiAAJB5SFb97DyUsw+/+/RA6h5aD3dNyH4R6/HHKtazLn0AzHY+/FfqLP+UtWAqvgAk4ZzFhjAKUNi3om7in1cbOp4r9T4zP1yoOeRqGtyW20DvOgq6pgmsmOCyDC1zxKJmyOifYoIrrGXeXdqiXeNfpr3DX+QCQJIQrGA47cGu86K9jldHKyrRHAnURyK3RhcVvMEUBxq/iuAACohwMSBdydela0ZkzzsUhwKayGMYklNbVhloR/HkiFx6yKR3UPLlZxrtdsIp7/wWdUzTuLOBaK654jsG/ua3NR7b7X7qWR7sWnwvVHXzGsxDsZggAGcMgQEQPaMvCb5BhOid/Al0Zt4TXGNkqhznESdoyTmmCQw4BMduwHGb8gGLBd9V/4n39h1NRLouRgJXjkbbrxij3946j+wcyF15BQEu3/FpIFlHEKB3nt5+xyRrOtEsmVIrQ3MxZjhFAmUI4DiUI4QrkcCPyXAHjwh79CXJUivw4OfPuxZ18xsJX+hEFT6tyEO2f0a+2trWCbt0EbvSB3YCJNyU+e9qmeMxJxpEneskJh7msS8ia+1Bzr2TSDONl+Iie7pvKGmc/JACx6XCLzLAkaRVJyT9J0V8N4KkAjFnfyx4hl+WfYNXoVhq6P+/g9U+MU8VVdX91NxqLsF4kxd3Vu2h95UEWnuqY845ohoWyeiLUN45/iB8a7w3HEzJHAkCaA4HMnbgid11AgwcWj19SdFboHAeysg8wAV+LkeFfDwr1QUqtguJw72MSIEOp45KDZKc0e96p36HohD3LlE4q5pEvckSMw38L1o4/Bj5l/y1ZyDdNeV34n4h/8YpIGOwWAz3lFBX3IFw0ZzaSoN0GtC8CZeiwR6XooEuxJ8Y/f9oTsvNFRzvIJtTeLQcctOGQcqDs4ZwtvWCc9lSMQ1TiJ34+iRBTzxTyRQh+KAXwIkUAEBJg5nA31P0F+l8OrnrDjkyUMVQlCpZIA4xC3LJMZNEcnT91oFp7unTdrcc4NUHhxpEnfN6uFIE9W1QITGxPP86c4H4h/uyDUHlDqY2NL7Adhe8EEdQpoo3DrNNkS5VVrkCD0koIlC9A0tC4HBR/jGy2W7ZJY61g7Ls+Lw0+LWup3FAfYRck0SnlulEXKNk1DL0/uWcdnhHHEVEjhWBFAcjtXtwpO9WQQMcbhyJuKcIeIBi0NufIHsSIdxS5rWOajc9KGkz9s96XvjjnU9+wAZCMcqiTlXqDxEPdMk6pkkin/sZdmfGpQaU49JjcOfhJAbE4NyYPR5yTdOJBAGzwKRXMtEca6QqH1DFwd7+jXRO1rRgE/7cL9P1ZWocSCEvOWMqVcFHCvkTpnEYYq0Nl/EQaD24SbgLk4WARSHk3U/8WoOiAAThzOBPm/IOXdzxAHkwZImUffAfQdxmUpzT73cdOVeNTDW3uZaGow7Nr8Wt28SPdZJ3L5OBQIkojBiIBaOVaKCILjMsUqijjUa0Ewhumdea7v70KQBMJUUh4c++PEHfvdDn+ZYcSRs3OoZfhmaKSDrEHLOkIeDKA4H8V3DfR5vAigOx/v+4dkfEgEmDh0d5JabIQ7Gq6PTRPIM7LnOQWjq7FI9Y1+L+sa+F/WOX1c9k0SFwkXPLIm656gAxBwgC5WJg5GRgCaNdFYeQCTWierYpJkG2QXS0HNYmYbsN4OUFIcH737y5d+980KeOIQ8gy+L3DIRbasEMktnm7onD+krhodBAseGAIrDsblVeKI3kwATB0LILdAODgMF0Vc4w+BC5gLJfapxKGyqMMRhZV+6Zar+0RfP2zZJOwdisK5nC1xpIntnieydpkElAkTCO/U92Tf2PDRNgGDEXHMk5logcaiBcKyQdvsqDdobw5mmPTMg80AFwr1E9yl6R5dh/IbDv4clxOHOpx/4aPNFcuZ0xwPmjEPIM/SiWRweDnS9ePjnjEdEAkebAIrD0b4/eHZHhAATB5iGvFdelexTVBxKFjiW6l65y+UxyxphIbuHf3+vWOTAyLAuDFlpcK5cU3yzL4iNA8P86e5PSad7HoCmi8LjiHd1eOXG/kHVl7wGXTbbHUvkPLdCo90OEgH1EHrQMSEaE+vhuzq8hfs5vL91caij3TGN4kjeP/iy4BklZ5s7z5vFIewdHIQeMzCOA++YIq2BLhwE6vBuFh7pmBBAcTgmNwpP8+YSyBMH36Uvw9DTkHG4GeIg7IM4iIGRT0FTBDQlQE3CbulG/QP3qf7hp1V/Ylz1J9YVf2Icum5G/YkDqcPY7XnWnYHxG/RRI/k7L3CKc5oojjkSCnan8sUhkRMHGEUy4k7sms2uzxU/iASOOAEUhyN+g/D0jgoBvTsfzTj4Oifh5Uj0xUkwMBONTL5E7DKzkDcmhHkf1g149TaN/RAHKTjyABMH6PmgNKe2ZReOCvl9OQ+TOEjewS/BOy9AHCIF4iB5Rx6FbrayFcbpWKZyuC/Hx50ggRNEAMXhBN1MvJSDJGASh0DnE4crDus5aQB5ENypPQ89LZ8esuo9IFaJ7JkjxZolDpLmTdg3zTjwTZc5/Q2bGSoO4cbuL5kzDoI/9RATB6hdabv9WRLzzfynm3C+eEgkcGQJoDgc2VuDJ3a0CBjiEA50nQFxgIGZWGxrsjBnCyqYzxVD1q8SfV5/B0ZbfXZIa8smUbMheEfO7QcbKISEZgoQB6hp2I99HtV9sGYKyZv6En1PhnU9Kw5dLxeKg/5q7WwGqWGVRL0j7qN6XXheSOBmEEBxuBnU8ZjHkIAhDmKgzwuvaWbSANODFAeQh1jDJlGsG0Tmlkm8ZeCX9wOgEBghMvR68MwR/vTlT+3HPo/qPkAOWG1Dm3WTQETtC4QP9OeLg3fETXvJmHrHyJ7EQ0f1uvC8kMDNIIDicDOo4zGPEQFWlW+8YRHGcojaZva1xmGnjAMTB5lLE8Gb3HMzBYPPBwe/DfUNujj0DrPlJ3EK4iB6B1NQ22CIQ5qInhFizjhAs0TUAlke470jincYR488iV8KvKZdE0Bx2DU6/GBtENguDqSD3LLfNQ7lxEG1rhHJOUXEu7p+Y7+4h0/3bII0UHFo7nlhv/Z7FPcjNPa/i9U2MHGAJgtYBuvM5yzb9DE6WBaJdycGzetxHgnUOgEUh1r/BuD1lyFgiENdnam5wpX4e9WyRPTQq++NAaHYK7cL3pxpqnWALII54g0bxBzt9RuERdyyQlTbIhG8A/tS28AuONTc0wfSACNFCk1919jyozgVAxcnRf/lXXfxFL3JVJTLkBi8iTP3ds5VAsuiTYOc+ZpF1yCJ2uZybz0V3MkJ83qcRwK1TgDFoda/AXj9ZQjki0Ndhy4PgnvgTw1xWNJHkYTue3Qkyf0Vhxh0DXSO7lsTBbvgSHPvORAH1bVEor7kkR2vQAxevDPmmNRi9hlN9g1WPQS0+qGOd8quSZMwGK/1BomIelN54sB7ul6VuRmiNuiFqYI7uecBtxhznCKBk0AAxeEk3EW8hgMmYJKHrDjw3v7ZqBWEgUU267Bv4rBJ2uv1UO2zfy+3LPzMfl9kuPnyh0Ac4OVUMALkfu9/v/bXZp/7Thu3pEGAPCiukR+I/u6Ksw9CYPBzimOhpDiIvtRHzefKe03iUL9BeHfqVfN6nEcCtU4AxaHWvwF4/RUQ2C4OEc/ARUMa9jfjoDdRbBJooojZDkYa4KL5OzvfJ3ln6bsqPmZbJ+2+ySM3CJTqmn78XMOzWrt1VWu3pmm0cQta1Dmpyd7y2Qf1Q0PvlF3T16P2dElxkDypT5q/BLyv6/dzGYf6DSI6Ro+sVJnPG+eRwGERQHE4LNJ4nGNMoIg4eAekbeKQzTZAc4U+AmR2DAaa8s6vdzDXN8A8q2dg0/O3b2aloeNnbq27dd+zDexmSL7pnDi0+UeO1FgO0WDf/xazL2iF4gACoWcf5rSoc+IHor/0a8YFX/JzUS5zndU2tFnXCYRR57BOoP6B8YBpxNs1ATUObfUbNCRuBsXBDAjna54AikPNfwUQQHkC28VB9CQ+QIshs8MSs9oGfQqSYJaGbPe+HYojmTDA1JxpAGk4SHEQ/OMEhp4+z62TNs/IkRrLIeoeWWuzZUzikMllHdqtMK8HNF+I/oENqGUovJeQbYjZNt9korA7cZgjwun+dxfuG/9GArVKAMWhVu88XvcuCHTckiuO9I68G+QgXxhYpmFv4hCzT/+93NLxM7fV3faO+rr6t7vqXG+DsQbgPRmkDiRm//7x/tQ3VPsKOWdbIao72bd/e97bnqK+5J0gDe2Wda3dsqlPaXOFIQxMHNpsaS1qX7guekauR5p7cvUKgg9qG5aoODBhKJyCUIje/OJHwdv9aK6pomGdQMYh0nwpuLcrwk8jgZNDAMXh5NxLvJIDJ2CIw9Cjf/Gzsm0pKw6ruen2JgqWedipqWKVxC3QBr9IVG76D6EQErIMhjjUHaA4DKeZOEQ9yY0DR1jhAaAgst3ybFYasuIAElFUHla1Nuv69RiXua44Z64rrokNNTD7TjpvS19vs278hL2SvHBKx8dwp/JenR3xX5QKxQGGGa/w1HEzJHDiCaA4nPhbjBe4bwQ66n6acfhpZMdzCLmT/yDZlohsgcwDyAMEzDNZMKYxywYxBxuzgS6zpolqnyCKa2Bm3861wh3xvsH+GJcm7dY0UdxD36zwYwe6meRLPB7jloxMA806QOYhG1QeoFhSj7hlRYs3rGkxy5qmWpa1qHUpG8t0Wcy6cSPesKFBxCz5oVo3NMUxppkviA8+/QAM8MXuJWQcwv5uHD3SDAnna5oAikNN3368+KoImMQBmgzO+i9/VeQWiGx5NveQiTZsEIjCGgezNMC8Lg5rJAYPbPsUEXw9n63qXPZpY943pDBxUF3Jf96n3e56N1AQqThntBiXgSyCIQtMGtjUJA8gDUwM2urXNXNkRWGLrS8uDhN54iAFLzRI9qncPaXi4Ovq3/VF4QeRwAkjgOJwwm4oXs4BEiB1p1jGgYqDubLzrgAAIABJREFU7/K8yEHG4VkqC/QXahXiANKgctNvCN7ekmnw/3rnaIPkGWqQvIn7IWTfoF/29fkfaUn84n5cKe/vb4FRKWkziX3spvcekDzJtRiX1tpstPmBysOOAmFZp9kGJgZmaTDNb7F5tWFdM0fUsq7J3FS+OHguN0jcHJEtGzSbBOIAXTT3gzfuAwmcBAIoDifhLuI1HA4BkzjAAc/4+7p4+27EIZdp+MdoU+9vFzv5UPAzDYK395zs7TsnewfOSZ5Ev+xMPac4pt6AkNwjb/Degb8NBy73tzY/c3+xfVSyTPYnblW4+aw4TBDZ33trJZ87iG3EYPedUcf0NmnYB3HIZSHM0gDzujjMaJLncoP5mlAczDRwHgnkE0BxyOeBfyGB0gQKxSHQp+aJQzbbQJsq6jeIaoq8pgo901BSGkqfgL5G9qX8oifZL3hSbwjusTd4z9gbYU/qr0KBgVC5zxZbr9inTeLQ2VJsm8NYRkeItG3PNhQXByiY1INlG2DKMguVTJlEyLYFTXIP541hITrG9aaKhg0CEhHx9n73MBjgMZDAcSCA4nAc7hKe49EgUCAOHw1evq86cVgjqo3WNOxaGswg5JbEL/KeRD/Ig+CapRF2T/+V/J/Hfs28Xbl5yT3yfZWbJYpjgvCBzj2N5RC680KDeHfPfyx3zML1imfscRABkITCZoqDEgeQC5AH2bakSe78wa9EV/JVWuzasEFk6zIRXYmb3oxTyAz/RgI3iwCKw80ij8c9ngSyvSrg5M8E+97H26E4Ui+IZIWR5inLOkDGQZeG6X2RBjM8+SOJXxRdY1+WnPNvhN2zb7T6xt44G+zzm7fZaT7s6/0T2TFF5D2KAwgD7x3/seRc+LHgmf7zsD/1mVAwvwmg2HnA5xTntCENBfUNBy8OC5rgHsjrNSG6+1+lY3Q06PUrqmUZxaHYzcNlNUkAxaEmbzte9K4JmMXhA5d/gYcHbjlxgFEkrStEsYM0JIrWNOz6fEwfDPuS/SAOYffiG2H3/BuVNl20Bi/1C64JIjknSNjfOW/aZVWzEX9iXbEv/zhmfY5GlFv/seyc+7HoGf1xJHBlLtLU8V/Euz+3LRsh+gbmoo45PdMA0nDo4jCn8Z7Leb0mRPeV36cjg0IPmfpnSfz2DdLmGc2rg6gKDm6MBE4QARSHE3Qz8VIOgUCuS2ZdHQzQFHGnvkvHcaAPmPy6BpZtgJS3wi0SyTd0z0GfYcQzNibZN24IjrUbYffsjUoyD2eaOp8Ku6cI754grcGOr+zmHOXAwEdokaU1TXKDLFlXiGpbJtBrQ7HP0m6nsnOMKM6RP1Dcwx+H11lHHZMcNJPAq8Nj1hU63DYMub0tGtZIfIcofPdHNX/Deyl4b8+m+bol18AmZBmgWy3sK16/SqKOwbw6CPP2OI8EaokAikMt3W281r0TMIkDDAcd8SS+Rgd8MhVCMmFgU/jlKrlHru794JXtQXDNf12yr90QHCtZeRjcsdnibLArEvJMkbB7mrT6+1+r7CjGVtFg389HnRP/vO1hX0wASiwDaTha4jDYr4vDKmmrXyXx+gyJulEcjLuOc7VMAMWhlu8+Xnv1BFiBJKk71VLX8lbePbhUThxg+GK+6RJX/cF294mzwS4/7569oWceVm6EPRM3zt3T/65Sezvb0uFv9U6QsHOZCI75qtvyRW/fDGQN9iIOZT+7Q7YBMhHVZBgKt81mHF4185HcQ49ScbBkSFtDhsTrl4lSUAdh3h7nkUAtEUBxqKW7jde6dwImcYCXTkU8Q70lxSH7EizJlcrs/cDV7SHiH2wTnMs3aObBOX8j7O8tOZy1cE/Hu1q9YyTsTBPJnq5KHMKB7g9B8wMMIFX24V8i21D2c2WkYc/iYF0gomsw77ol93BWHJZJW8MyFQfZNTBc3V3ArZHAySSA4nAy7yte1UERMIkDjB7JuxPxUuIAVfl01EHv5UPLNpgvO+RLfJ3Kg2P5RtiTIpFgR8kmi5B3hIRdi4R3TZFIsKvkdub9Rx/o+3nBM/x9FQaQsqbzxaGCh/1ONQvb17FhuotPC7MIVf3dkCGqdaFQHB4AYYBsg55xyBDVOZhXB2FmgfNIoJYIoDjU0t3Ga907AZM4wM5CntSHSxVHwtszeXfq+3s/6O72AE0QvHv6hmRfucG7pknI1//1UnsKeZOv8c5FwrtHSCh44eFS25mX896+GXjPhl7YeIzFIVv8KJl6TcA8kwYmDlHnYF5zhpkFziOBWiKA4lBLdxuvdX8ImAokBfeERbFeJaplk6jWjbyQ7fMk7O879GYK80WGvGNfh1oH3pEmYc8ICQefiZjXs/mwL/EVEAfBDdtceJwtLzUVAlfugBEn6XsuoCdFtriRTbdnDHbuFVF+++KZBvaW0aoyDPV6TwnjM6s0q7BNHOr15SgOpb4FuLxWCaA41Oqdx+vePQGTODwWWv1lmUsTxbaWJw0gEbJ9loQbe57e/YH2/slIsM8vOBdvCPY0gaxD2NdXNOsQ8SVGBccyEVxTJBzoHN3pyNCLQnaNfR+aJ4zQe0UcB3FQG1aJasmQqHWJQGEkFK/Ca7R5f09ed0tYBwWSOXGwJ3+8ExdchwRqhQCKQ63cabzO/SNgEgfYqehN/FPUvkBitvW8UBxzJBzovQC9L6AegtTVlYz9O7nte1Kakv+Nd0xpIreg8c5JTT595T2FW4U9yU+JtowmcstayHvlxcL15r8jnoEBmZvRVEsmF20NGS0v6le1NlPEb1/Xdgrj3RL5n2P72OmzsM74fP48ex+FWr+hsYhaMprEzWi8K/U3EU/fCyFf52Otwc48aYDr5T1Xfsyuk47jwE2+Kd711G+YWeA8EqhFAigOtXjX8Zr3RqBAHPhA9zcV50yeNIBEyE4Qh/6bLg5iS5ckOkY1ybakidySFvKkBgoBiO7RB0Xbqiba1rWQJ/l64Xr2d6TxkkeyT2pR65KmNqweKXEAkYlaF7SobSYbc/Q8ZducJjlH/4Z3JccjntRjIV+/jV3PTtNWX9frkn2KXiOM5aBy0z8JB7q8O30G1yGBWiCA4lALdxmvcX8JZAskIYsAO+abelYV1yxR7Wt5oUAvBf/oizc740DP0ZXKiQPvmM6JQfvpyfcI3pEPSdz8gGRd1SAirpRWDNgn7ku9Q3Smvk2lAbINIA7ZYJmBUtPtGYMNLX47hJ6JMDIGu884gDSI7oHvRnzdL/C+7kuir++jonO8Ikkodr0RT+J1iZvTIEMB4hC1zWxFAl2/W2xbXIYEaokAikMt3W281v0hUCgOwe4rxcQh6sgQ0TNDOlq+mm2qgOaK4k0W+3NipffCuxNfgYxDLril12XrssZCsmU0GtZVjXeOFxUHwXNlAH69M1kwT0sJg768sJmCSQOb5jcv5PbVAE0hy5pqXdBU65ymWmdoRG1TWpSb1GT76DdkR3JCdiXPxZzDuxaEQmqtwT634B1WJcfk68AragGZWQdx0EL+7k8Ubo9/I4FaI4DiUGt3HK93HwhApqHjllzG4XRPe3FxWCGKM0NEX/KCLgw3URw8g4/npIEKxLIm2QxxkK0ZTY9VTbRPaWcbOyxmUJHGXg9IQ9S6XKE45MuAnl1gogDTZ7OhL2ur39D0MD4H0iBzU5rkSP6j6O77huDtmhC8XeegucR8brudDzV323j/4APQfMF7Epu8K/k6SJNon9EkboFKFjAxxAHeadF9ebfHw88hgZNCAMXhpNxJvI5DJFAgDs3d9yvumbxmCtZsEXWsEVinNF58MF8e8jMPB33yYV/yPSAOcjZAGoqJAzwkoV0/3Nj1oPmceHfi2+YMQ+F8LkuQK4jUBQCKE6EZwiwO8LeRSdCzCVHbXFYSUv8ou4ZXJHfiSdk71Gw+h73Mh5o7bCFf92Ot/u7xsO/K3/CuFBUEKkuWdSoHcO0QsjU/oha4BuhqO0d4T3d6L+eBn0UCJ4EAisNJuIt4DYdMIF8chNN9t0seEIeV4uFYJm2uqRsx3+UCedB7WdTV1d1yGBcAhZHslzT0noBg8sCaKuBBSsUh0Pkp8zlVKg6GUKxrIA3w0NXlwcg2qJYlyCLAq6yvCr6+pOjrjfLenn2RBNE3bBPdiY+KrsQl0Zl6QXaOfheKOaEXBdQr6LGQbaKBbIJ+jkwa2JTJA/ydPX8qDoK360/NXHAeCdQiARSHWrzreM17JJAvDnJLxy9Knoni0mBfIW32FXKOy9yIuyZuyI0XP1GYeTgsceBdk19hD1Dolhlxjb0OtQ8Rz/AA75r8lGSffh0yEiAOIX9nXs8LwZ14zpACoygSlrGMAmQdoBaB1iBAHYJtSpO5SU1yjH9PdoxclR3JC7Iz9eF48PJv7vEG0I/LjZc8gvfSOcl9ZUK2zX1Xf8ibiyuNrAc8/KE7ZrShIArEgV0jEwj9+lahiJOo1hnCe7qqfnvoflwr7gMJHCUCKA5H6W7guRxhAiAL+WEWANk7+iPWPAHTNs4U9hUS5zKkzbFIou4Jwgd7uqGnBcSZujNvqYOALp5QdAlxQP8ivt4ByT6uQUR8Pd8oPIzo7n8Oxi2Ah33Yf+k583rBlRqgD194ABdE2+3Paufe9zztIaE6+/9c9n5hQvF2xOTGC/tSiyD7O24Vvf2/K7iGe0FgeFdSEx2TVHCgBgKKFmnTB/R+yI4nEa/PaPFcswkTHZZd0CWCjutAr4Wth6YKfWwKth/o4gnzsD/VNqXx3kv/bOaC80igFgmgONTiXcdr3gWBfGkAiTCLg+QdeUW1bxAWbdwGMWKNZh3a7BmiOjIEshPh5o6cPFBx2MUZVfuRkP+ZAcmR0iDC/gvbxEHwdQ6ANMDDOOLt+Y55/yFv3xO6VMxoNPXvTH1HdA4/J7lSA7Jr/CNt9oU9S0JrS8etfOPF+yPeS0/yvs75iLf3ddE1qMn2cVqbwbIA5ikbhIo96NsaljUIXRwMkTAyCdnmEzYgVFaCWN0FEyfotZELlj1xJLVQ4AKKg/mLgfM1SQDFoSZvO1509QS2i4NZHiTf+FWVu0pYtHHPEiNAIpg8rBA1m3kQgn2PsMxD9edT/SfCgQuPQ20BRDFx4L2d7fCQhl/wkmsoTxzO3vFZTyjQ+cR+9WiQPcMexZ0KSY5UUnKMXJXs469TIYF6BPuUEdycJtuMmgS9l4Pe04HKQEGGoFJxMDdZQOYBijeh2yeIiuDt+jrv6crw3q5uwduj8p7eewV/3+3VE8dPIIGTSQDF4WTeV7yqfSewsziIvvErTBpgmi8NTBwyJOqaJVHXDIm6pojoHyRn7n7iXpCHfT/dIjsMNRoZh9bA9oyD5Ll8GjIOtIeDvfhYDkV2W3YR1CKI3u4nJPeVq7IjdQ3qIKAeAh7W8Euf/tpvYD0aWLfQnaesnkHPOCxrUHCZq6+g16DXWOTqLOzjmuhM0WGmYahp3pWcEVyppwV3UpA8o6dl/8StZS8EN0ACSIASQHHALwISqIhAcXFgWQfZP3LOXONgnofiSAjVOUtlIRLseoUPdl0NN1/oPnP3J2+OODRe+ErhZZ9rmbiV1gvQYZvnNNmfqOphGvEMe3hvIia5hgZkZ+LPZUdSi3KQwZii9QFUGBqW9JoBOmLk3sQh12RhXdKLMJ0J6KnxChs5EkaPjPh6PrpfWZJCXvg3EqhVAigOtXrn8bqrJLCzOPBNvfdCJgGaIVTn7I8Uz+grkm/4quwbviL7h87FfjomAYwgyZom2BSKI/UCyY5DKI7s+Ybey2FUg+xDMQCwnv56hy6TntHTxbaJ0GaLjo/w3s4nBN+l5yRX/3dobw1bRq9FgPdYWKDWIFtjANkFmmFgI0gaXTP1rAO882KZNknAfmAAqrxwTGq8c1SDosiIe/AbEc/Qc4JnqFdwJc+J3uTvSp6hhmLnicuQABI4GAIoDgfDFfd64gjsLA4dLR1vVQO999LhpQnZJghMFAqnuV4VdQcvDnoPhDlNcoxqrYELjxe7RZIz+R1dHJY1lZtvB3kQ3YPtgmdoQHQnnoN0P/TKgH3phYTQJKCPKAk9EvJ6JZh6NbB3UrCBoM69/1mNBUgFDCct21OvRzyX/zjk75wP+S892drYfT+Nlo6qMh/FrguXIQEksH8EUBz2jyXu6UQT2FkcWOYgXwzq3tpSx0Lvfgnr6/ICumOapOGAumMq3uEPsXoAEIdw4JkPFbtdgqf/OZZx0Ls4Qv2AObKv0ja94IoKg3UhJxKGVEDXTogpeK+EJjuT12ghpCOVlJ2jTyiOsZBsH9tzb4xi14HLkAASODgCKA4Hxxb3XBME9G6Ze7pUXRYObPwGODfJkfoGHRa6IUMf4nzz53+92DkLnoEBeMskfbEUFBxuD6JalkhbwxJRLcsEZAR6PYjuxP8peHr+IuLrWQ/5eq+EA70fb/X3PNAa6HWcae75lXfW3fa/3lZ32zuKHROXIQEkcLwIoDgcr/uFZ3sSCRxQloGhitz5+buhdgGaC0AeQCLYusJp2N/5KGQkIOj4CTDyIwwa5Uq8JrkH/lhyDSyI7v4OydOvKN7+u/jA2G2pT/zBO1x1rrdBNqXD9PKvwn3j30gACZwMAigOJ+M+4lUggZIEYp7pV6C5gYmD4h7+eKmNz9z9WH2r/+KjocDFUKS5pz7iG6gvtS0uRwJIoDYJoDjU5n3Hq64RAqp3qq+d23xTHy8BihAXNL45UbSZokaQ4GUiASSwRwIoDnsEiB9HAgdBIHz/Z39pr/sFaYg5028ycYB6Bdk5uL7X/eLnkQASqG0CKA61ff/x6o8ogfP3f/aXpOYvpIU7P+er9hT5ls/epnomX4nb199kQYsY7eNaqaLIao+B2yMBJFC7BFAcavfe45UfcQIgDVH/lTdjnpF0mz/5cLnTlQKjdwuBkS/J3sk3IdPApCHuWHkTukTy3t5QuX3geiSABJBAOQIoDuUI4XokcBMJSMGuSMwz9ma7Y+HNuGv2TTUw8IrS2J2GULMR8w29orrn3lSdq2/GHHrEHatv6rHypuqefROl4SbeRDw0EjhhBFAcTtgNxcs5WQRg/IPIXZ+5L+YZebPdsUTlIe6afBOi3T35Exqu2RvtjqWtdvuKlg3Sbl8h7Y4lEnfPvqK2DN12sqjg1SABJHAzCaA43Ez6eGwkUAEBGB9Bua/nV2LexAZkHwrFIe6evBF3TW7FXZMaRMwzRlRf4g+j/v6yzRsVHB43QQJIAAnkEUBxyMOBfyCBo00ABEIKdj8sBTuHsrEhBTs35KbOabmp8zOwjm/pwAzD0b6NeHZI4FgTQHE41rcPTx4JIAEkgASQwOESQHE4XN54NCSABJAAEkACx5oAisOxvn148kgACSABJIAEDpcAisPh8sajIQEkgASQABI41gRQHI717cOTRwJIAAkgASRwuARQHA6XNx4NCSABJIAEkMCxJoDicKxvH548EkACSAAJIIHDJYDicLi88WhIAAkgASSABI41ARSHY3378OSRABJAAkgACRwuARSHw+WNR0MCSAAJIAEkcKwJoDgc69tXeyf/0OnHrrUGOiuMi9dag53XWoMd11obO5bPNn/hYuiOix/cT2pnmj9zfyjQeU2PjmuhQMe11qanr51peUIud5yHWz79GTi3sK/3mpANmK8m2Oekxiuv8E2dr4Tu/EzZ91OEWj7fxZ+++IoY7KYhBbtfkRt7XhFPX3CUO+dS60PNTz4CDMJ+PQRf57UKY1nwdS4L/l5ZPt35nlL7r3Y539z962F/z0Nhf08yFOj+b+FA9z9BhPzdWxAw39rY/U+tge7nzgY7Hjl71+ed1R5jp+3FwCWH6L3cLvouz9N75L38fYFGLxG8EJe/r9+7y18RvZfHJd+V39tpf7gOCRwlAigOR+lu4LmUJdDq6yGifaaCmCKifYpITogJIrgmNNE9romeUU3wJrVIYGA50txTX/aAZTaI+Aa+KttnieyYILJzhIbkGiGSa/RamY/WhRs7kpJzjCjc4p4j7lwiqmecCE1dnyx3XNUzSVT3NIm5ZnMRh3lfYqncZ0utF7xX+lRulpgjZpsllQR8JmZfIFHHDIm6xq/J/sGy0lXqPEAYBNdYUnJMb8n2+R1DcsxvCY75Ld41vRXxjm6F/WN/FA5MnSm170qWK+7h9qhj6prKzZOYdbmqUBxjJBJ4+luVHAe3QQI3kwCKw82kj8eumkDEnSCyZb1oRBs2CA3LOonSWCWqdYWGYktrUS6jRe1pLWpfoiE7ZzTBl7pY9UlkP3C2pcMiOaaJat0gqi1NYrZFPegDI01kT2LHB6Dg702CNMQartKI118l5mDLy083yXnbVQLyIDX27ygOMf/wJ9sdadJuX82L89wqibumSezu7l/dDQ/FOdLXXr9BikbDGmlvWCNxCMvK9mhYI23WzVzEbKsk6py7Jp++UlUGIhy8qIIwqNaNLdWyWVEo1s0t2baxJdtXt2T7+pbMfXFLcGf+SLy75z9Ww0EMDDpU+9w1uMb2+qu7CtW2TARvH6nmuLgtErgZBFAcbgZ1POauCTBxyEkCk4WGDaLWP5uNDdJWr4fasE70WCVqwyqJWjJ6WJdJ1LpEZNscEZ0jL+3mhARfKinZlqikxKzwQEybYoXIzp2zDiAOqm1Rl4WGTdJenx/xhk1SGLGGTVIsYDvYl+Dv21Ecoq6Bf1a5aQIPKZAqOG8W8CtZco907YaF5E72UTFggmCeUllI01/fcI7017htnmYjYJ4us6WzkrdGFBtEGrJF/xJuvHy6kvMJ+/qmQOIUDq5rjaiWq3qA1LGwbBKVhi5qIGT635t528DxZcfM3wmN/ZZKjs37+hTFPkVi1jSJWUCQNnYR2fuH4lAJctzmJhNAcbjJNwAPXx2BYuIgWzObsmNqTnSmaMjO1ByE5EymJefIS7Jj9G9lbkqLWheIaslQgaBTmAeRsC4QyZFKVncmdXWyfZ5KCIgJfWAU/JqGh0m46ZKr1H7DzZ9pFT39acWZ1MM9nFYgnCPpmH0qHbMt/h/0Fzp9EG3SYyj2pVcU50xaco6lRU+ShuROpiX3SBr2FW767AdKHU/1dp1RHcNEFwd4UK/RfcK5gzxA1gQyIKU+v9NyyT3YxwQkN+Xm/0F2p+ZE78Cc7E7QEL0whb/7fx9C8gz8i+RKEXjoy/ZFothWsuKwRmRumQiuqX/5/9s799i2rvuOq2m7ouuKdUWyYUBbtEGBNrb4vHzrYQ31siZF6wyuaonk5b0UZWVumqxZXTeek5TVw7IsiaLeoiRbtmTZlvNY22DIuvxRFAiwB4E+vLpDMyRw/1gKzMjQFev+GLad9XcOD3VFXVKkxNzyyl8BB5e8vLznnM8hcL/6vU6lfumzaHggpXPLz7WihYkLAsc1liQ3knf2NdU/vZ7wT4+qvulT1Oi1psy/Sm4mEhucAYmy5g3e6OGf9Cze3LHvyOAR3ZPjQozfo8hylSVdFwsurJmf6d7Z67p37nxSmT1JjV7ryuwVXZn9W907/zMaP3GIhtO74r/TOPE5CNSTAIRDPWniXm87ASkcjO6K3sDSx6rpOOnPPpFyrvz0+IGrQkAUhEOqmf5LvcCSbWNVxzz0+HKPkfVCWjQKD40fyYcmPfDpv+mEP7NWzdjMrtH84yQeCv+93uAPODWYedbs2mrOJX1jr6Tc9JCj/4w3hOWieePN4gOvWTx4tUA2Uc39jNeYCQdNmZozXlPudbT1GSUaGruhKjkuFoTFgawO60I8BLI3yn033nrORQ9oaUGhufH5OdZY0p17LREaeqjcd+X5hH9ylFt+SiwFdE7zT4zK60qPqT9Jf5DiWUR/60URRmMhMZEIjM51VRlwStd1t33tG1/oeOyHpf3gPQg0GgEIh0ZbEYynIgEz4aAGpqsSDvLGPa6ll1LNl7eIh+MHV5nmzVTtstA9F37EXQbNZApf5/+p93ovKdxczd0W5AJYpYfXrv+DTIQG1ii4kOIGyBVBD8hY+OyuhIPa8vWPUPCdeMAK0XDcsfFKn2O9UwTxyQffBrkrfiBZVXs0Ew6JwHhVwkH2EWsZekhV5v+dLA1GywMFt8b/6BmXvM54THpzOWJD4keIhkuMxFHSO/3ik5033mu8ttLrpG/mSK9z9VfC3SJcDbSWSffir8p9L+EfH+UxKtxKIa02q4wsCInw8K4zVMr1h/Mg0CgEIBwaZSUwjqoI1EM4UEdJ18JLRrcFCQfdPcNibekdrQ7xyLnPaK4LIhDz4AbTnZeLloVe18W1zQBA4dfX/RP9VU2u5KJ6CodEYHxKigZhxt9gKfcqzyBIeXJvCv+8MNOT2TzR3l/Tg68ewoGmL8RDbjNWwUHxBossGunPleBpSradvY/E1KZwWGUp9zxL+odfe7IzU7VokPdNeXOniMNmjAKJgTWmBcZOyWvkMRXOfJAsEtzCVHBvkHDRvbn/gGiQlHDcrwQgHPbryu7TedVNOATHDuiupf/rcazymIfjB6+wHtcCU0NDFTMhCGvMN/4dHhRZCMyk9FAZy6AFJxUe/EcPoELMg+6dZY8/NPWeWpeknsJB886+KYIGRSBgj/vSm3I8Kd/oIB9z4QFI/0Vrvszz8vNqjvUSDtRXNJC9QfEjfLwUp+C6xFR/9lbpONTASEq4GERsAn+Qe7KsJ/Tsju6J0nvJ972upZubwkFYHjRlelusQzI4ecR4Hbl+aJzx4PhJeS8cQWC/EoBw2K8ru0/nVS/hQHgSgbGXKKuCsi24cHDmWCzYXzFIMtY2doBEg+64WkgJ3aAaEVtqNqiBDM/jJ+FA/5GSvzse+Uay1iWpl3BQI+kneAAfT00VD2Jj9kQfuTEo9kFmH1BWAmVdhMertjrUVThEzrWLNFeRSstTailws23qPiNDNTicI8HDLQ7krnCssj535jXjNbW+TvpmT8kASXnUPblt7grNPzlaKhzI2lBrf7geBOxIAMLBjqt2F4+5nsKR51D1AAAW6klEQVQhGul/QnflhHA4cJX1OHMsHhj8u0p4Vf/UJBcNJBwcV5nmvMLU4MRjxu9EI/1dSfeiyFQg4eC+yEhMGK+p5nW9hIPmy/wzZReIGIA1HulPMQ/GMWi+icuUXUCBiSQg6KGpeWerTs2sp3CgcVFcg6zBIYI3N1hPYGpLnIPuz9ziVgaKM6E0S3IdeMe2uTSM89zptRqZbOZpqpQdUbDAUOaFtCjJ72v+7D9uEw7K7Dfl5ziCwH4mAOGwn1d3H86tnsJBDZ37rO5a4pkRxw9cZynHEgmHilHtcWWCaa4VpjlXeSM3hRlmqlhJpnYhLlZZwrXC4i1jNZW7rodwSIRGD5MJnVsQyIpARYb8k98uHXOifdhDLhUpHngtA+/y66XXlXtPdRyM2Rn0OhGYqCk40nhvXZm6JTNUxHGN9QQyf2q8Jule/AXNhwdGOshVcJElgiNfNF5T6+uT6ur7hJuErB2iBgQXDpHBI8Z76b7MbWPdCi60/NNwUxgh4fW+JQDhsG+Xdn9OrK7CoXU0SK4KEg19D5BwuMDi/uE75cipwXOPxb0zLOG+wMhdQUdVyZi6NmL+ydO6a43pjitMc1xlCedVFlNmXix3b7Pz9RAOunfu2/wByNMUSThcYmpw/GGz/jTf1CtUS0F3XmOa6xrT3JeotsAJs2tLz20VDsJikfBP7lo4aL7sdzeFgwgyVQOjKWO/XDRQ0aWCC4Ye8LHQuV3HN8h7J5TZX1Fmh1E4JCL9WwSJrmRFJcxCoSsSDmpwskveo9yxs+Pkl7pa+u8YW3dk4E40NHSnu+XZO19of6Ls76/cPXEeBKwmAOFgNXH0tycCb49w2GB9D9B/l5WFQ9K99BPNRftkXGAJ12UW9y6wntbh+80mRCWLVe+isExw4XCFxZQ5prYPVJ06ulfhoLY//TFyUdBDTaYqJl2XyloRdN/Cw/TA3BQOq0xXZsteb5z3pnAQooFSVRP+6uo4GO8jX2u+zHd5pgcXBubCwfg5z2jwLLJYFXUbZB/ljt2hkdua5yJLkhXDscE0zzIrFQ6U2srLS9coHKLBkTsUv2FsogjVRb7PSTT8rKkFq9xYcR4EfhMEIBx+E9TR564J1F84rPDy1DsJh1Rg+hHKwCA3BbkduHBQpr9TaSKqdylH11EcRMK1yuKeHIsGR00tFGb32RQOovR0rXUcVH92jB6o5IunhyyJCM03fcasL3lOd629vikc1vgDTm0/a2qhkN+hoxAOm6Jh78KBLA4kGGRbpYJKW1wVfHMsnhJJlhSK3cjVXTjozvoJh2OfesqvKrPFypiy0BVZNniAp5NiYYYgHIw/LLxuSAIQDg25LBhUOQL1FA7dFOPgXGHHH3iO9T3wHEs5Vlg8cNY0xiHuG/0OtzYURAPPrFDmHpHjpGyLWNsUb8ngwoFk8MqBlGe9i0SDFA7cUuFZqPrBkAgOrfU6L/I9LGjzK4pVqKUAFD1MydoghQNVOSQrhBwzFc6SLRVe9qR81zyaa32S3BT8gelaZ6rnEosGx16R3yl3LAqH4l4az7OEf2bXrgrdO33LuPcHZUyUCgfVP/oLsUdEfYWD6hOuiooWB+/Ebdq469GDYtMu4hwPVo5xONb6dJaqY0rBII8QDuV+VTjfqAQgHBp1ZTAuUwL1FA5qaPwMFW+izbFIPJQTDtHW9P0x3zi3GAhrwwpLeJZ+IgfY05q+n9wWCed1pjkMO3cWsi4okJIsD/RdsliovvNbsjDkfUqPexEOmm+mT+60ScGDohbCWDEoUvctPSxdGBQQSS4Kzb3GNNc6j28QwuEaU93rLO6bZb0d6Q+Vjs/4vt7CIemZL24YRqKB0i714EjI2Gc01H+LXAZUlpviHahQVCw4tiUWwXh9Na8pOJLcFLprfYurIloaHKlkbpNoePSgqNdBD/+4fzpbqY+jHV/JRkNDK6p/akVV5ld078oKxcFAOFSihs8akQCEQyOuCsZUlkA9hUPCO/OSTg+lwk6aPc4LTA2e3eZK0JTRyYRnbjO2wbPEYv7NTbHU1mcfI+EQd4kgSAqGLDZucaAMjMsiG4MsFsrkT8tO0PDBXoSD7p2/yUtiU6lq5zqj9Ea1ZdPloPtmvk0WCdqFkho9KIsuioLFQYgHMtVfZMmQeRCoHG49hYPeMhgSlgThpqCAThISsi95jIb7v7lFOFDaq2/6svx8N8doZKydiwbaodMQ4xBtHd6yWVlSybworA2r3J1CGTSqMvv3tfSphyY+SmwhHGqhhmsbgQCEQyOsAsZQNYF6CgdyPZBw6Gm+zsUDFw6h/m2VI5Pu3B2jm4JEQtQQFBkPDP4k4c6xRMEtQa4JyqYQrSAapHCgo3uO6S3f2DE1c7fCIdr69GH675uEA9U3IIuC6ssWgxzJXUE7MdJ/6UI8FHakdFD5bGO7wXSnEB69yvJ/9naMlLU6bBcOFBy5O1eFGsxM8qDOQnwDxTJQzYbSH0m05emU7p3etDiQ1cSz/K+l19XyPhqYGSIGUjSI4Mjt+1Xo/rEv8viLgrWDxJmqzLOujvRHq+2vq2P4o6LQFWIcqmWG6xqDAIRDY6wDRlElgXoJh+7A+BlRAfJKUThQMahY+zMO41B0/4ReDIrk2RQrLOafLG6GRXUSyBrR415hva41Q7vCel3UaKtqylS4zJtI48yxuP/8y8Z+zF7H/cNr5D6h+AtypVA8Rnd4cMdNrjTfxFWeqlgQDpRiqQVGikGRscizZ+g/eBl4KAoticJP9N8vFxuOGyzJ2/P8fa9j7X97lOxTrIm9w2ysqm9yhH+3WH1yY1dZFV9+ZOUDYnttMuGLypFUTEsNDa6U9tvV/pSH0iKFq0JaTlZZNJDle3CUXl/Ne1XJ3TaKBhIRCd/cq6Xf1YJjCrl/KGCVH8lq415m8eBYRXeF8T4QDkYaeG0nAhAOdlotjLWpHsKBxEHcO8eDFqlAE1kc+IPZvbAtMFJ3z/2Qts7m2RRuSsVcYtHQ6GG5FMn2wQ8nQhOHqfUUmnwvzk0d1pTZy7QpFokHIRwuMKoHcawt7ZX3MTsm/MNrx5trEw608VPKJapWSosDWR/ovOyjq/WpjnhouEMPTYjmm+jQeZvu0H3UljqSzvXXU80kGl5kvQef5zt0pty5fxrre+leeR/jUQ2Mj4i9JUTRJBIRu6njoCqLKyJocLPctOadZSQSjP3J17qSucVjILjLhbbhXmeqL/eG/LyWYzQw8XWqXVEUDs5r/H503uw+Cf/0j6nQFxWM4oWzSEh45pkWGX7Q7PrScxAOpUTw3i4EIBzsslIYJyewV+EQa884VGXh5zJNktwKQji8wHT3/BY3RSz8jENUlrzK6MGf8CywuHfudq1LwcWFZ467RUTFSYp3uMC6A+cr+uN3JRyUqTGyJMjtoSkAUlNmr9Y6Zk3JnSDh0HvwRUZBlrS1d69r8b97Woa+YGZ12BQOZLkQrdbKkbp3mQcLii21yX0imtkGV3I+upLtpD1ByDrB4zQouNO9ylTv4o6ZIPIedIwGJ7tINPD4hkJsA72mGg5/9uD87xuvla+7Imk96p/i15Bw4FYeEY/xVjXiAcJBksTRbgQgHOy2Ynf5eM2Fw1IxxbAcHrIydAdGxyklUu4xIVMleZyDY2WbtSHhm3hB7p5JMQ5xZYrFgud3dBWYjSEeGOVWBx4kSRkAjlVudTC7Vp4rdVWQ1WMnVwUFFco9FHhFReclloiMhuU9azkmnWuvk9tCCoc+x0XW4xv71h80Od9Xeh8z4aApc1WlY+qBbGfKsX6LLBskOqRgoIwDCh6Mhocruh6S7sVbvHAVBXgWGlktdNfaG2ogV/G7nYe//pHu0NjsFktDUTissnhg0tTaQPPv68u9uys88uM4pVi6aIttyrBY464Tsjzo/rGsXiHmgYIjyVohUmZvMEq9RR2H0l8W3jciAQiHRlwVjKksASkcegpbWtMx6Vz7VsKzcDXumypp08/HfVPfjStTP+PpkrxUNAUritoKIojxKqPAxli4f2tsQzjjEKLhOt8ES3PnWNx3niXbz3y47OAqfEBuCXJPcJeFQwgHEiMx38Spcl+L+c+tpZovs75PvsCOP/ACd5dUEg7xcLqP3BRSOFA2guYb27YldLn+Ss/H/VMn6CEuhQNPP3Re+q9HWzK+0mtLhQNP9XSt/gtZOzRfdlvTvdPf072z36P4BXroSjeHdFNQv1w0BLPbYhtK+06093tUX+6XUjTwY8HNwK0PyvIvVd/0K7FgZpbcDtRiwewsnaO6CqWWBnJVkGDSPMvbYhtK++5s7VfI6kCxDpt1J1ZF3IVrmbsuerzT3096Zp5LeqezSWXmdNI7m0165p9LuZbfENahDV6rA8KhlC7eNyoBCIdGXRmMy5SAmXAwigj5mmozUOPvm68LK0OxroIUDqJsdDRybtseA7pnfpjiHnh9h4PXeWCi6j9fDIo0HdwOJ7sDZ18mkULWBt54hsXyD8p9bZtwcF5mx8Jny1o8SCSQWJDCgR7K0XC6r9z9dzpPcRG6++LrUjicOHCNnTiwwVLe6WxnU+c7jd83Ew4kHmSTY5LHRw/cEIWtqKollcQuuDdIMEhLQ8w/9bL+yMQHjP2Uex1tHeyM++d/SUKB0kpLmyy2VDwWrArFeIaCWCD3DJ3TPRdvl3NRlI6BUjV1T+6tvuZVg3gQ1odNMWH2fr3oUiIeVKsiHkTlyFK+eN94BCAcGm9NMKIKBHYjHPRmKsxUqK1QsDaQu4JiHUqzKGTXlJophQMXDweeYwn/XDEoUl5Xy/FY21e95O4oCgcSEM7LTA2cNzWndwdLLA4VhAO5I0g0kHtCPpzJbfF451QxKLKWscprdW9uaKtwuMZ6Xbl/62sb+kN5DR1JONBDWQoAKRjkUY5JHisJh2otDcb+6XVX+zNkeXiDxlGtcJDppyQWyFXS98Bfsx7nxqvVigY5BnI79Loufr828bBdOERDEA6SKY6NSwDCoXHXBiMzIXAsNMhiVGzJk2Nxz9Jmo1RJQ6N4AJ4JQQWX3EsU1MhjCuioKjM/j/kmz/R9NvfbJl00dYX6dXrA89oMngVxdF+oOSjS7N7HwoM/iFGshDJTbMciA6ZWh67IM2txZZKRm4TG0u2fYJ1tZ0wtDrHwwFUq8mRsanBkzGwMtZzjVgfPPEu5cxQcyVtSyf6PGjnzhPE+sdDZEcre4Bkc5H7gbZnvj0E1GagWg1mjz2iPCSqHrfmyTPVnX06Eh00zKIz9VXqt+Waf1DyLb5AAkY1iCYyNn3df4iW1Ve8yFW9imjL3asqzss36VKmv0s+0YObBpC/7fSpMRczKNRJ1ohGrHKPrNf8I62r72nOl98R7EGg0AhAOjbYiGE9FAs6PHMkfOvho/uHAyfzR9nT+84cG8p0dQ/ljh87muw6dzXe3n8t3t5/Px1vG8/GWjGit5/LdbacXo4e+eiLeno4wxn6nUieR5vjSZyJfzh/tOJV/pP0v8oc9fXnlY5/vrfSdaj9z3/+5zxxy9OQfCv55/pFDp/JHP3U6f/TBk/nQJz+9rXDQYW88/bnWL+WPtD6ZP3roZP7op57M/3EoYTqO+OdO56MP/WX+SPuX858OPJo/7Enlg5846qx2XJWui7Y/PtDdciYfDQ/ko5F0vrvldP5Yx4ktbpvutq88Tp/Fw+m8GpRtIK8GzVuc7hXu/5vu8MBCd+vphc62x+/rDKc++Il7W97/8Y8/9B6zzI1KYyz9LN1547d627LOZGhiUA9lbmnhzE0tnHlLtkQk81Y8MnEz1jJxPdox/KXS7+/1vd6R/qTaMpBKhAcvJMID/6CGB26q4YFfyBYLD9yMRqgN/VV329Pn99ofvg8CVhKAcLCSNvoCARAwJXD/793/u5+49973f6jpQ+/taOp4l+lFuzx5X9OBikJxl7fF10DgriUA4XDXLj0mDgKNQSDdlL6HxIKiKO9ONzXds8OoqHIlXUNH0yqWO3wfH4MACOyRAITDHgHi6yAAAm8/gXQ6fU8hk4OsEdQoq+Oevbo03v6RowcQ2H8EIBz235piRiCwbwiQMOCiobPznR0dHe8iywQ1EhEQDftmmTERmxGAcLDZgmG4IHC3EGDs16KhSVgaSChQIxFB5yAa7pZfAebZiAQgHBpxVTAmELjLCXCBUHBPkFDYSSxASNzlPxhM31ICEA6W4kZnIAACOxHglgayLFRpXSDRINtO98bnIAACeycA4bB3hrgDCIBAHQkYhUMlS4L4LP3rDAvhuhDv2TuaDEICgqKOC4NbgUCBAIQDfgogAAINR0A+8IUY2D48Ok/uiya+Z4YIlBTXQjhsp4UzIFBfAhAO9eWJu4EACNSBgBQGMrahVEDIz4VwEFYHsjSUb3UYFG4BAiDACUA44IcAAiDQcASkMOCZFBWzKCqJBeNnDTdFDAgEbEsAwsG2S4eBg8D+JVAqHKTlofyMjSLB7HX5b+ITEACB2ghAONTGC1eDAAhYQEAKB5mWCeFgAXR0AQJVEoBwqBIULgMBELCeAGVYUCvdm2L7eTMrg/Gc9WNHjyCwXwlAOOzXlcW8QGAfE4Bw2MeLi6k1PAEIh4ZfIgwQBECglEBROLCmdzRRwx8IgIBlBCAcLEONjkAABEAABEDA/gQgHOy/hpgBCIAACIAACFhGAMLBMtToCARAAARAAATsTwDCwf5riBmAAAiAAAiAgGUEIBwsQ42OQAAEQAAEQMD+BCAc7L+GmAEIgAAIgAAIWEYAwsEy1OgIBEAABEAABOxPAMLB/muIGYAACIAACICAZQQgHCxDjY5AAARAAARAwP4EIBzsv4aYAQiAAAiAAAhYRgDCwTLU6AgEQAAEQAAE7E8AwsH+a4gZgAAIgAAIgIBlBCAcLEONjkAABEAABEDA/gQgHOy/hpgBCIAACIAACFhGAMLBMtToCARAAARAAATsTwDCwf5riBmAAAiAAAiAgGUEIBwsQ42OQAAEQAAEQMD+BCAc7L+GmAEIgAAIgAAIWEYAwsEy1OgIBEAABEAABOxPAMLB/muIGYAACIAACICAZQQgHCxDjY5AAARAAARAwP4EIBzsv4aYAQiAAAiAAAhYRgDCwTLU6AgEQAAEQAAE7E8AwsH+a4gZgAAIgAAIgIBlBCAcLEONjkAABEAABEDA/gQgHOy/hpgBCIAACIAACFhGAMLBMtToCARAAARAAATsTwDCwf5riBmAAAiAAAiAgGUEIBwsQ42OQAAEQAAEQMD+BCAc7L+GmAEIgAAIgAAIWEYAwsEy1OgIBEAABEAABOxPAMLB/muIGYAACIAACICAZQQgHCxDjY5AAARAAARAwP4EIBzsv4aYAQiAAAiAAAhYRgDCwTLU6AgEQAAEQAAE7E8AwsH+a4gZgAAIgAAIgIBlBCAcLEONjkAABEAABEDA/gQgHOy/hpgBCIAACIAACFhGAMLBMtToCARAAARAAATsTwDCwf5riBmAAAiAAAiAgGUEIBwsQ42OQAAEQAAEQMD+BCAc7L+GmAEIgAAIgAAIWEYAwsEy1OgIBEAABEAABOxPAMLB/muIGYAACIAACICAZQQgHCxDjY5AAARAAARAwP4EIBzsv4aYAQiAAAiAAAhYRgDCwTLU6AgEQAAEQAAE7E8AwsH+a4gZgAAIgAAIgIBlBCAcLEONjkAABEAABEDA/gQgHOy/hpgBCIAACIAACFhGAMLBMtToCARAAARAAATsTwDCwf5riBmAAAiAAAiAgGUEIBwsQ42OQAAEQAAEQMD+BLYJB3kCx58yMAAD/AbwG8BvAL8B/AbMfwNNAGMOBlzABb8B/AbwG8BvAL+B7b+B/weVgh0DXqC6owAAAABJRU5ErkJggg==;" vertex="1" parent="zuihI0vclrm4cLOv70S8-47">
          <mxGeometry x="450" y="396" width="156" height="97.28" as="geometry" />
        </mxCell>
        <mxCell id="zuihI0vclrm4cLOv70S8-45" style="edgeStyle=orthogonalEdgeStyle;rounded=0;orthogonalLoop=1;jettySize=auto;html=1;entryX=0.16;entryY=0.55;entryDx=0;entryDy=0;entryPerimeter=0;" edge="1" parent="zuihI0vclrm4cLOv70S8-47" source="zuihI0vclrm4cLOv70S8-4" target="zuihI0vclrm4cLOv70S8-43">
          <mxGeometry relative="1" as="geometry" />
        </mxCell>
      </root>
    </mxGraphModel>
  </diagram>
</mxfile>
